G04 #@! TF.GenerationSoftware,KiCad,Pcbnew,(5.1.2-1)-1*
G04 #@! TF.CreationDate,2019-07-02T18:03:37-05:00*
G04 #@! TF.ProjectId,multiSPI,6d756c74-6953-4504-992e-6b696361645f,rev?*
G04 #@! TF.SameCoordinates,Original*
G04 #@! TF.FileFunction,Soldermask,Top*
G04 #@! TF.FilePolarity,Negative*
%FSLAX46Y46*%
G04 Gerber Fmt 4.6, Leading zero omitted, Abs format (unit mm)*
G04 Created by KiCad (PCBNEW (5.1.2-1)-1) date 2019-07-02 18:03:37*
%MOMM*%
%LPD*%
G04 APERTURE LIST*
%ADD10C,1.500000*%
%ADD11C,2.100000*%
%ADD12R,2.100000X2.100000*%
%ADD13R,2.057400X0.609600*%
%ADD14R,0.558800X1.981200*%
%ADD15R,1.981200X0.558800*%
%ADD16C,1.524000*%
%ADD17C,0.100000*%
%ADD18C,1.250000*%
G04 APERTURE END LIST*
D10*
X113030000Y-121666000D03*
X171196000Y-121666000D03*
X171196000Y-44450000D03*
X113030000Y-44450000D03*
D11*
X166624000Y-110490000D03*
X166624000Y-107950000D03*
X166624000Y-105410000D03*
X166624000Y-102870000D03*
X166624000Y-100330000D03*
X166624000Y-97790000D03*
X166624000Y-95250000D03*
X166624000Y-92710000D03*
X166624000Y-90170000D03*
D12*
X166624000Y-87630000D03*
D13*
X154940000Y-100584000D03*
X154940000Y-101854000D03*
X154940000Y-103124000D03*
X154940000Y-104394000D03*
X154940000Y-105664000D03*
X154940000Y-106934000D03*
X154940000Y-108204000D03*
X154940000Y-109474000D03*
X150139400Y-109474000D03*
X150139400Y-108204000D03*
X150139400Y-106934000D03*
X150139400Y-105664000D03*
X150139400Y-104394000D03*
X150139400Y-103124000D03*
X150139400Y-101854000D03*
X150139400Y-100584000D03*
X154940000Y-80264000D03*
X154940000Y-81534000D03*
X154940000Y-82804000D03*
X154940000Y-84074000D03*
X154940000Y-85344000D03*
X154940000Y-86614000D03*
X154940000Y-87884000D03*
X154940000Y-89154000D03*
X150139400Y-89154000D03*
X150139400Y-87884000D03*
X150139400Y-86614000D03*
X150139400Y-85344000D03*
X150139400Y-84074000D03*
X150139400Y-82804000D03*
X150139400Y-81534000D03*
X150139400Y-80264000D03*
D14*
X155829000Y-70942200D03*
X154559000Y-70942200D03*
X153289000Y-70942200D03*
X152019000Y-70942200D03*
X150749000Y-70942200D03*
X149479000Y-70942200D03*
X148209000Y-70942200D03*
X146939000Y-70942200D03*
X146939000Y-66217800D03*
X148209000Y-66217800D03*
X149479000Y-66217800D03*
X150749000Y-66217800D03*
X152019000Y-66217800D03*
X153289000Y-66217800D03*
X154559000Y-66217800D03*
X155829000Y-66217800D03*
X137541000Y-70942200D03*
X136271000Y-70942200D03*
X135001000Y-70942200D03*
X133731000Y-70942200D03*
X132461000Y-70942200D03*
X131191000Y-70942200D03*
X129921000Y-70942200D03*
X128651000Y-70942200D03*
X128651000Y-66217800D03*
X129921000Y-66217800D03*
X131191000Y-66217800D03*
X132461000Y-66217800D03*
X133731000Y-66217800D03*
X135001000Y-66217800D03*
X136271000Y-66217800D03*
X137541000Y-66217800D03*
D15*
X134188200Y-80137000D03*
X134188200Y-81407000D03*
X134188200Y-82677000D03*
X134188200Y-83947000D03*
X134188200Y-85217000D03*
X134188200Y-86487000D03*
X134188200Y-87757000D03*
X134188200Y-89027000D03*
X129463800Y-89027000D03*
X129463800Y-87757000D03*
X129463800Y-86487000D03*
X129463800Y-85217000D03*
X129463800Y-83947000D03*
X129463800Y-82677000D03*
X129463800Y-81407000D03*
X129463800Y-80137000D03*
X134188200Y-100457000D03*
X134188200Y-101727000D03*
X134188200Y-102997000D03*
X134188200Y-104267000D03*
X134188200Y-105537000D03*
X134188200Y-106807000D03*
X134188200Y-108077000D03*
X134188200Y-109347000D03*
X129463800Y-109347000D03*
X129463800Y-108077000D03*
X129463800Y-106807000D03*
X129463800Y-105537000D03*
X129463800Y-104267000D03*
X129463800Y-102997000D03*
X129463800Y-101727000D03*
X129463800Y-100457000D03*
D16*
X166370000Y-116840000D03*
X166370000Y-119380000D03*
X163830000Y-116840000D03*
X163830000Y-119380000D03*
X161290000Y-116840000D03*
X161290000Y-119380000D03*
X158750000Y-116840000D03*
X158750000Y-119380000D03*
X156210000Y-116840000D03*
X156210000Y-119380000D03*
X153670000Y-116840000D03*
X153670000Y-119380000D03*
X151130000Y-116840000D03*
X151130000Y-119380000D03*
X148590000Y-116840000D03*
X148590000Y-119380000D03*
X146050000Y-116840000D03*
X146050000Y-119380000D03*
X143510000Y-116840000D03*
X143510000Y-119380000D03*
X140970000Y-116840000D03*
X140970000Y-119380000D03*
X138430000Y-116840000D03*
X138430000Y-119380000D03*
X135890000Y-116840000D03*
X135890000Y-119380000D03*
X133350000Y-116840000D03*
X133350000Y-119380000D03*
X130810000Y-116840000D03*
X130810000Y-119380000D03*
X128270000Y-116840000D03*
X128270000Y-119380000D03*
X125730000Y-116840000D03*
X125730000Y-119380000D03*
X123190000Y-116840000D03*
X123190000Y-119380000D03*
X120650000Y-116840000D03*
X120650000Y-119380000D03*
X118110000Y-116840000D03*
X118110000Y-119380000D03*
D17*
G36*
X143339504Y-62492204D02*
G01*
X143363773Y-62495804D01*
X143387571Y-62501765D01*
X143410671Y-62510030D01*
X143432849Y-62520520D01*
X143453893Y-62533133D01*
X143473598Y-62547747D01*
X143491777Y-62564223D01*
X143508253Y-62582402D01*
X143522867Y-62602107D01*
X143535480Y-62623151D01*
X143545970Y-62645329D01*
X143554235Y-62668429D01*
X143560196Y-62692227D01*
X143563796Y-62716496D01*
X143565000Y-62741000D01*
X143565000Y-63491000D01*
X143563796Y-63515504D01*
X143560196Y-63539773D01*
X143554235Y-63563571D01*
X143545970Y-63586671D01*
X143535480Y-63608849D01*
X143522867Y-63629893D01*
X143508253Y-63649598D01*
X143491777Y-63667777D01*
X143473598Y-63684253D01*
X143453893Y-63698867D01*
X143432849Y-63711480D01*
X143410671Y-63721970D01*
X143387571Y-63730235D01*
X143363773Y-63736196D01*
X143339504Y-63739796D01*
X143315000Y-63741000D01*
X141165000Y-63741000D01*
X141140496Y-63739796D01*
X141116227Y-63736196D01*
X141092429Y-63730235D01*
X141069329Y-63721970D01*
X141047151Y-63711480D01*
X141026107Y-63698867D01*
X141006402Y-63684253D01*
X140988223Y-63667777D01*
X140971747Y-63649598D01*
X140957133Y-63629893D01*
X140944520Y-63608849D01*
X140934030Y-63586671D01*
X140925765Y-63563571D01*
X140919804Y-63539773D01*
X140916204Y-63515504D01*
X140915000Y-63491000D01*
X140915000Y-62741000D01*
X140916204Y-62716496D01*
X140919804Y-62692227D01*
X140925765Y-62668429D01*
X140934030Y-62645329D01*
X140944520Y-62623151D01*
X140957133Y-62602107D01*
X140971747Y-62582402D01*
X140988223Y-62564223D01*
X141006402Y-62547747D01*
X141026107Y-62533133D01*
X141047151Y-62520520D01*
X141069329Y-62510030D01*
X141092429Y-62501765D01*
X141116227Y-62495804D01*
X141140496Y-62492204D01*
X141165000Y-62491000D01*
X143315000Y-62491000D01*
X143339504Y-62492204D01*
X143339504Y-62492204D01*
G37*
D18*
X142240000Y-63116000D03*
D17*
G36*
X143339504Y-65292204D02*
G01*
X143363773Y-65295804D01*
X143387571Y-65301765D01*
X143410671Y-65310030D01*
X143432849Y-65320520D01*
X143453893Y-65333133D01*
X143473598Y-65347747D01*
X143491777Y-65364223D01*
X143508253Y-65382402D01*
X143522867Y-65402107D01*
X143535480Y-65423151D01*
X143545970Y-65445329D01*
X143554235Y-65468429D01*
X143560196Y-65492227D01*
X143563796Y-65516496D01*
X143565000Y-65541000D01*
X143565000Y-66291000D01*
X143563796Y-66315504D01*
X143560196Y-66339773D01*
X143554235Y-66363571D01*
X143545970Y-66386671D01*
X143535480Y-66408849D01*
X143522867Y-66429893D01*
X143508253Y-66449598D01*
X143491777Y-66467777D01*
X143473598Y-66484253D01*
X143453893Y-66498867D01*
X143432849Y-66511480D01*
X143410671Y-66521970D01*
X143387571Y-66530235D01*
X143363773Y-66536196D01*
X143339504Y-66539796D01*
X143315000Y-66541000D01*
X141165000Y-66541000D01*
X141140496Y-66539796D01*
X141116227Y-66536196D01*
X141092429Y-66530235D01*
X141069329Y-66521970D01*
X141047151Y-66511480D01*
X141026107Y-66498867D01*
X141006402Y-66484253D01*
X140988223Y-66467777D01*
X140971747Y-66449598D01*
X140957133Y-66429893D01*
X140944520Y-66408849D01*
X140934030Y-66386671D01*
X140925765Y-66363571D01*
X140919804Y-66339773D01*
X140916204Y-66315504D01*
X140915000Y-66291000D01*
X140915000Y-65541000D01*
X140916204Y-65516496D01*
X140919804Y-65492227D01*
X140925765Y-65468429D01*
X140934030Y-65445329D01*
X140944520Y-65423151D01*
X140957133Y-65402107D01*
X140971747Y-65382402D01*
X140988223Y-65364223D01*
X141006402Y-65347747D01*
X141026107Y-65333133D01*
X141047151Y-65320520D01*
X141069329Y-65310030D01*
X141092429Y-65301765D01*
X141116227Y-65295804D01*
X141140496Y-65292204D01*
X141165000Y-65291000D01*
X143315000Y-65291000D01*
X143339504Y-65292204D01*
X143339504Y-65292204D01*
G37*
D18*
X142240000Y-65916000D03*
D17*
G36*
X143339504Y-69096204D02*
G01*
X143363773Y-69099804D01*
X143387571Y-69105765D01*
X143410671Y-69114030D01*
X143432849Y-69124520D01*
X143453893Y-69137133D01*
X143473598Y-69151747D01*
X143491777Y-69168223D01*
X143508253Y-69186402D01*
X143522867Y-69206107D01*
X143535480Y-69227151D01*
X143545970Y-69249329D01*
X143554235Y-69272429D01*
X143560196Y-69296227D01*
X143563796Y-69320496D01*
X143565000Y-69345000D01*
X143565000Y-70095000D01*
X143563796Y-70119504D01*
X143560196Y-70143773D01*
X143554235Y-70167571D01*
X143545970Y-70190671D01*
X143535480Y-70212849D01*
X143522867Y-70233893D01*
X143508253Y-70253598D01*
X143491777Y-70271777D01*
X143473598Y-70288253D01*
X143453893Y-70302867D01*
X143432849Y-70315480D01*
X143410671Y-70325970D01*
X143387571Y-70334235D01*
X143363773Y-70340196D01*
X143339504Y-70343796D01*
X143315000Y-70345000D01*
X141165000Y-70345000D01*
X141140496Y-70343796D01*
X141116227Y-70340196D01*
X141092429Y-70334235D01*
X141069329Y-70325970D01*
X141047151Y-70315480D01*
X141026107Y-70302867D01*
X141006402Y-70288253D01*
X140988223Y-70271777D01*
X140971747Y-70253598D01*
X140957133Y-70233893D01*
X140944520Y-70212849D01*
X140934030Y-70190671D01*
X140925765Y-70167571D01*
X140919804Y-70143773D01*
X140916204Y-70119504D01*
X140915000Y-70095000D01*
X140915000Y-69345000D01*
X140916204Y-69320496D01*
X140919804Y-69296227D01*
X140925765Y-69272429D01*
X140934030Y-69249329D01*
X140944520Y-69227151D01*
X140957133Y-69206107D01*
X140971747Y-69186402D01*
X140988223Y-69168223D01*
X141006402Y-69151747D01*
X141026107Y-69137133D01*
X141047151Y-69124520D01*
X141069329Y-69114030D01*
X141092429Y-69105765D01*
X141116227Y-69099804D01*
X141140496Y-69096204D01*
X141165000Y-69095000D01*
X143315000Y-69095000D01*
X143339504Y-69096204D01*
X143339504Y-69096204D01*
G37*
D18*
X142240000Y-69720000D03*
D17*
G36*
X143339504Y-71896204D02*
G01*
X143363773Y-71899804D01*
X143387571Y-71905765D01*
X143410671Y-71914030D01*
X143432849Y-71924520D01*
X143453893Y-71937133D01*
X143473598Y-71951747D01*
X143491777Y-71968223D01*
X143508253Y-71986402D01*
X143522867Y-72006107D01*
X143535480Y-72027151D01*
X143545970Y-72049329D01*
X143554235Y-72072429D01*
X143560196Y-72096227D01*
X143563796Y-72120496D01*
X143565000Y-72145000D01*
X143565000Y-72895000D01*
X143563796Y-72919504D01*
X143560196Y-72943773D01*
X143554235Y-72967571D01*
X143545970Y-72990671D01*
X143535480Y-73012849D01*
X143522867Y-73033893D01*
X143508253Y-73053598D01*
X143491777Y-73071777D01*
X143473598Y-73088253D01*
X143453893Y-73102867D01*
X143432849Y-73115480D01*
X143410671Y-73125970D01*
X143387571Y-73134235D01*
X143363773Y-73140196D01*
X143339504Y-73143796D01*
X143315000Y-73145000D01*
X141165000Y-73145000D01*
X141140496Y-73143796D01*
X141116227Y-73140196D01*
X141092429Y-73134235D01*
X141069329Y-73125970D01*
X141047151Y-73115480D01*
X141026107Y-73102867D01*
X141006402Y-73088253D01*
X140988223Y-73071777D01*
X140971747Y-73053598D01*
X140957133Y-73033893D01*
X140944520Y-73012849D01*
X140934030Y-72990671D01*
X140925765Y-72967571D01*
X140919804Y-72943773D01*
X140916204Y-72919504D01*
X140915000Y-72895000D01*
X140915000Y-72145000D01*
X140916204Y-72120496D01*
X140919804Y-72096227D01*
X140925765Y-72072429D01*
X140934030Y-72049329D01*
X140944520Y-72027151D01*
X140957133Y-72006107D01*
X140971747Y-71986402D01*
X140988223Y-71968223D01*
X141006402Y-71951747D01*
X141026107Y-71937133D01*
X141047151Y-71924520D01*
X141069329Y-71914030D01*
X141092429Y-71905765D01*
X141116227Y-71899804D01*
X141140496Y-71896204D01*
X141165000Y-71895000D01*
X143315000Y-71895000D01*
X143339504Y-71896204D01*
X143339504Y-71896204D01*
G37*
D18*
X142240000Y-72520000D03*
D17*
G36*
X143339504Y-75700204D02*
G01*
X143363773Y-75703804D01*
X143387571Y-75709765D01*
X143410671Y-75718030D01*
X143432849Y-75728520D01*
X143453893Y-75741133D01*
X143473598Y-75755747D01*
X143491777Y-75772223D01*
X143508253Y-75790402D01*
X143522867Y-75810107D01*
X143535480Y-75831151D01*
X143545970Y-75853329D01*
X143554235Y-75876429D01*
X143560196Y-75900227D01*
X143563796Y-75924496D01*
X143565000Y-75949000D01*
X143565000Y-76699000D01*
X143563796Y-76723504D01*
X143560196Y-76747773D01*
X143554235Y-76771571D01*
X143545970Y-76794671D01*
X143535480Y-76816849D01*
X143522867Y-76837893D01*
X143508253Y-76857598D01*
X143491777Y-76875777D01*
X143473598Y-76892253D01*
X143453893Y-76906867D01*
X143432849Y-76919480D01*
X143410671Y-76929970D01*
X143387571Y-76938235D01*
X143363773Y-76944196D01*
X143339504Y-76947796D01*
X143315000Y-76949000D01*
X141165000Y-76949000D01*
X141140496Y-76947796D01*
X141116227Y-76944196D01*
X141092429Y-76938235D01*
X141069329Y-76929970D01*
X141047151Y-76919480D01*
X141026107Y-76906867D01*
X141006402Y-76892253D01*
X140988223Y-76875777D01*
X140971747Y-76857598D01*
X140957133Y-76837893D01*
X140944520Y-76816849D01*
X140934030Y-76794671D01*
X140925765Y-76771571D01*
X140919804Y-76747773D01*
X140916204Y-76723504D01*
X140915000Y-76699000D01*
X140915000Y-75949000D01*
X140916204Y-75924496D01*
X140919804Y-75900227D01*
X140925765Y-75876429D01*
X140934030Y-75853329D01*
X140944520Y-75831151D01*
X140957133Y-75810107D01*
X140971747Y-75790402D01*
X140988223Y-75772223D01*
X141006402Y-75755747D01*
X141026107Y-75741133D01*
X141047151Y-75728520D01*
X141069329Y-75718030D01*
X141092429Y-75709765D01*
X141116227Y-75703804D01*
X141140496Y-75700204D01*
X141165000Y-75699000D01*
X143315000Y-75699000D01*
X143339504Y-75700204D01*
X143339504Y-75700204D01*
G37*
D18*
X142240000Y-76324000D03*
D17*
G36*
X143339504Y-78500204D02*
G01*
X143363773Y-78503804D01*
X143387571Y-78509765D01*
X143410671Y-78518030D01*
X143432849Y-78528520D01*
X143453893Y-78541133D01*
X143473598Y-78555747D01*
X143491777Y-78572223D01*
X143508253Y-78590402D01*
X143522867Y-78610107D01*
X143535480Y-78631151D01*
X143545970Y-78653329D01*
X143554235Y-78676429D01*
X143560196Y-78700227D01*
X143563796Y-78724496D01*
X143565000Y-78749000D01*
X143565000Y-79499000D01*
X143563796Y-79523504D01*
X143560196Y-79547773D01*
X143554235Y-79571571D01*
X143545970Y-79594671D01*
X143535480Y-79616849D01*
X143522867Y-79637893D01*
X143508253Y-79657598D01*
X143491777Y-79675777D01*
X143473598Y-79692253D01*
X143453893Y-79706867D01*
X143432849Y-79719480D01*
X143410671Y-79729970D01*
X143387571Y-79738235D01*
X143363773Y-79744196D01*
X143339504Y-79747796D01*
X143315000Y-79749000D01*
X141165000Y-79749000D01*
X141140496Y-79747796D01*
X141116227Y-79744196D01*
X141092429Y-79738235D01*
X141069329Y-79729970D01*
X141047151Y-79719480D01*
X141026107Y-79706867D01*
X141006402Y-79692253D01*
X140988223Y-79675777D01*
X140971747Y-79657598D01*
X140957133Y-79637893D01*
X140944520Y-79616849D01*
X140934030Y-79594671D01*
X140925765Y-79571571D01*
X140919804Y-79547773D01*
X140916204Y-79523504D01*
X140915000Y-79499000D01*
X140915000Y-78749000D01*
X140916204Y-78724496D01*
X140919804Y-78700227D01*
X140925765Y-78676429D01*
X140934030Y-78653329D01*
X140944520Y-78631151D01*
X140957133Y-78610107D01*
X140971747Y-78590402D01*
X140988223Y-78572223D01*
X141006402Y-78555747D01*
X141026107Y-78541133D01*
X141047151Y-78528520D01*
X141069329Y-78518030D01*
X141092429Y-78509765D01*
X141116227Y-78503804D01*
X141140496Y-78500204D01*
X141165000Y-78499000D01*
X143315000Y-78499000D01*
X143339504Y-78500204D01*
X143339504Y-78500204D01*
G37*
D18*
X142240000Y-79124000D03*
D17*
G36*
X143339504Y-82304204D02*
G01*
X143363773Y-82307804D01*
X143387571Y-82313765D01*
X143410671Y-82322030D01*
X143432849Y-82332520D01*
X143453893Y-82345133D01*
X143473598Y-82359747D01*
X143491777Y-82376223D01*
X143508253Y-82394402D01*
X143522867Y-82414107D01*
X143535480Y-82435151D01*
X143545970Y-82457329D01*
X143554235Y-82480429D01*
X143560196Y-82504227D01*
X143563796Y-82528496D01*
X143565000Y-82553000D01*
X143565000Y-83303000D01*
X143563796Y-83327504D01*
X143560196Y-83351773D01*
X143554235Y-83375571D01*
X143545970Y-83398671D01*
X143535480Y-83420849D01*
X143522867Y-83441893D01*
X143508253Y-83461598D01*
X143491777Y-83479777D01*
X143473598Y-83496253D01*
X143453893Y-83510867D01*
X143432849Y-83523480D01*
X143410671Y-83533970D01*
X143387571Y-83542235D01*
X143363773Y-83548196D01*
X143339504Y-83551796D01*
X143315000Y-83553000D01*
X141165000Y-83553000D01*
X141140496Y-83551796D01*
X141116227Y-83548196D01*
X141092429Y-83542235D01*
X141069329Y-83533970D01*
X141047151Y-83523480D01*
X141026107Y-83510867D01*
X141006402Y-83496253D01*
X140988223Y-83479777D01*
X140971747Y-83461598D01*
X140957133Y-83441893D01*
X140944520Y-83420849D01*
X140934030Y-83398671D01*
X140925765Y-83375571D01*
X140919804Y-83351773D01*
X140916204Y-83327504D01*
X140915000Y-83303000D01*
X140915000Y-82553000D01*
X140916204Y-82528496D01*
X140919804Y-82504227D01*
X140925765Y-82480429D01*
X140934030Y-82457329D01*
X140944520Y-82435151D01*
X140957133Y-82414107D01*
X140971747Y-82394402D01*
X140988223Y-82376223D01*
X141006402Y-82359747D01*
X141026107Y-82345133D01*
X141047151Y-82332520D01*
X141069329Y-82322030D01*
X141092429Y-82313765D01*
X141116227Y-82307804D01*
X141140496Y-82304204D01*
X141165000Y-82303000D01*
X143315000Y-82303000D01*
X143339504Y-82304204D01*
X143339504Y-82304204D01*
G37*
D18*
X142240000Y-82928000D03*
D17*
G36*
X143339504Y-85104204D02*
G01*
X143363773Y-85107804D01*
X143387571Y-85113765D01*
X143410671Y-85122030D01*
X143432849Y-85132520D01*
X143453893Y-85145133D01*
X143473598Y-85159747D01*
X143491777Y-85176223D01*
X143508253Y-85194402D01*
X143522867Y-85214107D01*
X143535480Y-85235151D01*
X143545970Y-85257329D01*
X143554235Y-85280429D01*
X143560196Y-85304227D01*
X143563796Y-85328496D01*
X143565000Y-85353000D01*
X143565000Y-86103000D01*
X143563796Y-86127504D01*
X143560196Y-86151773D01*
X143554235Y-86175571D01*
X143545970Y-86198671D01*
X143535480Y-86220849D01*
X143522867Y-86241893D01*
X143508253Y-86261598D01*
X143491777Y-86279777D01*
X143473598Y-86296253D01*
X143453893Y-86310867D01*
X143432849Y-86323480D01*
X143410671Y-86333970D01*
X143387571Y-86342235D01*
X143363773Y-86348196D01*
X143339504Y-86351796D01*
X143315000Y-86353000D01*
X141165000Y-86353000D01*
X141140496Y-86351796D01*
X141116227Y-86348196D01*
X141092429Y-86342235D01*
X141069329Y-86333970D01*
X141047151Y-86323480D01*
X141026107Y-86310867D01*
X141006402Y-86296253D01*
X140988223Y-86279777D01*
X140971747Y-86261598D01*
X140957133Y-86241893D01*
X140944520Y-86220849D01*
X140934030Y-86198671D01*
X140925765Y-86175571D01*
X140919804Y-86151773D01*
X140916204Y-86127504D01*
X140915000Y-86103000D01*
X140915000Y-85353000D01*
X140916204Y-85328496D01*
X140919804Y-85304227D01*
X140925765Y-85280429D01*
X140934030Y-85257329D01*
X140944520Y-85235151D01*
X140957133Y-85214107D01*
X140971747Y-85194402D01*
X140988223Y-85176223D01*
X141006402Y-85159747D01*
X141026107Y-85145133D01*
X141047151Y-85132520D01*
X141069329Y-85122030D01*
X141092429Y-85113765D01*
X141116227Y-85107804D01*
X141140496Y-85104204D01*
X141165000Y-85103000D01*
X143315000Y-85103000D01*
X143339504Y-85104204D01*
X143339504Y-85104204D01*
G37*
D18*
X142240000Y-85728000D03*
D17*
G36*
X143339504Y-88908204D02*
G01*
X143363773Y-88911804D01*
X143387571Y-88917765D01*
X143410671Y-88926030D01*
X143432849Y-88936520D01*
X143453893Y-88949133D01*
X143473598Y-88963747D01*
X143491777Y-88980223D01*
X143508253Y-88998402D01*
X143522867Y-89018107D01*
X143535480Y-89039151D01*
X143545970Y-89061329D01*
X143554235Y-89084429D01*
X143560196Y-89108227D01*
X143563796Y-89132496D01*
X143565000Y-89157000D01*
X143565000Y-89907000D01*
X143563796Y-89931504D01*
X143560196Y-89955773D01*
X143554235Y-89979571D01*
X143545970Y-90002671D01*
X143535480Y-90024849D01*
X143522867Y-90045893D01*
X143508253Y-90065598D01*
X143491777Y-90083777D01*
X143473598Y-90100253D01*
X143453893Y-90114867D01*
X143432849Y-90127480D01*
X143410671Y-90137970D01*
X143387571Y-90146235D01*
X143363773Y-90152196D01*
X143339504Y-90155796D01*
X143315000Y-90157000D01*
X141165000Y-90157000D01*
X141140496Y-90155796D01*
X141116227Y-90152196D01*
X141092429Y-90146235D01*
X141069329Y-90137970D01*
X141047151Y-90127480D01*
X141026107Y-90114867D01*
X141006402Y-90100253D01*
X140988223Y-90083777D01*
X140971747Y-90065598D01*
X140957133Y-90045893D01*
X140944520Y-90024849D01*
X140934030Y-90002671D01*
X140925765Y-89979571D01*
X140919804Y-89955773D01*
X140916204Y-89931504D01*
X140915000Y-89907000D01*
X140915000Y-89157000D01*
X140916204Y-89132496D01*
X140919804Y-89108227D01*
X140925765Y-89084429D01*
X140934030Y-89061329D01*
X140944520Y-89039151D01*
X140957133Y-89018107D01*
X140971747Y-88998402D01*
X140988223Y-88980223D01*
X141006402Y-88963747D01*
X141026107Y-88949133D01*
X141047151Y-88936520D01*
X141069329Y-88926030D01*
X141092429Y-88917765D01*
X141116227Y-88911804D01*
X141140496Y-88908204D01*
X141165000Y-88907000D01*
X143315000Y-88907000D01*
X143339504Y-88908204D01*
X143339504Y-88908204D01*
G37*
D18*
X142240000Y-89532000D03*
D17*
G36*
X143339504Y-91708204D02*
G01*
X143363773Y-91711804D01*
X143387571Y-91717765D01*
X143410671Y-91726030D01*
X143432849Y-91736520D01*
X143453893Y-91749133D01*
X143473598Y-91763747D01*
X143491777Y-91780223D01*
X143508253Y-91798402D01*
X143522867Y-91818107D01*
X143535480Y-91839151D01*
X143545970Y-91861329D01*
X143554235Y-91884429D01*
X143560196Y-91908227D01*
X143563796Y-91932496D01*
X143565000Y-91957000D01*
X143565000Y-92707000D01*
X143563796Y-92731504D01*
X143560196Y-92755773D01*
X143554235Y-92779571D01*
X143545970Y-92802671D01*
X143535480Y-92824849D01*
X143522867Y-92845893D01*
X143508253Y-92865598D01*
X143491777Y-92883777D01*
X143473598Y-92900253D01*
X143453893Y-92914867D01*
X143432849Y-92927480D01*
X143410671Y-92937970D01*
X143387571Y-92946235D01*
X143363773Y-92952196D01*
X143339504Y-92955796D01*
X143315000Y-92957000D01*
X141165000Y-92957000D01*
X141140496Y-92955796D01*
X141116227Y-92952196D01*
X141092429Y-92946235D01*
X141069329Y-92937970D01*
X141047151Y-92927480D01*
X141026107Y-92914867D01*
X141006402Y-92900253D01*
X140988223Y-92883777D01*
X140971747Y-92865598D01*
X140957133Y-92845893D01*
X140944520Y-92824849D01*
X140934030Y-92802671D01*
X140925765Y-92779571D01*
X140919804Y-92755773D01*
X140916204Y-92731504D01*
X140915000Y-92707000D01*
X140915000Y-91957000D01*
X140916204Y-91932496D01*
X140919804Y-91908227D01*
X140925765Y-91884429D01*
X140934030Y-91861329D01*
X140944520Y-91839151D01*
X140957133Y-91818107D01*
X140971747Y-91798402D01*
X140988223Y-91780223D01*
X141006402Y-91763747D01*
X141026107Y-91749133D01*
X141047151Y-91736520D01*
X141069329Y-91726030D01*
X141092429Y-91717765D01*
X141116227Y-91711804D01*
X141140496Y-91708204D01*
X141165000Y-91707000D01*
X143315000Y-91707000D01*
X143339504Y-91708204D01*
X143339504Y-91708204D01*
G37*
D18*
X142240000Y-92332000D03*
D17*
G36*
X143339504Y-95512204D02*
G01*
X143363773Y-95515804D01*
X143387571Y-95521765D01*
X143410671Y-95530030D01*
X143432849Y-95540520D01*
X143453893Y-95553133D01*
X143473598Y-95567747D01*
X143491777Y-95584223D01*
X143508253Y-95602402D01*
X143522867Y-95622107D01*
X143535480Y-95643151D01*
X143545970Y-95665329D01*
X143554235Y-95688429D01*
X143560196Y-95712227D01*
X143563796Y-95736496D01*
X143565000Y-95761000D01*
X143565000Y-96511000D01*
X143563796Y-96535504D01*
X143560196Y-96559773D01*
X143554235Y-96583571D01*
X143545970Y-96606671D01*
X143535480Y-96628849D01*
X143522867Y-96649893D01*
X143508253Y-96669598D01*
X143491777Y-96687777D01*
X143473598Y-96704253D01*
X143453893Y-96718867D01*
X143432849Y-96731480D01*
X143410671Y-96741970D01*
X143387571Y-96750235D01*
X143363773Y-96756196D01*
X143339504Y-96759796D01*
X143315000Y-96761000D01*
X141165000Y-96761000D01*
X141140496Y-96759796D01*
X141116227Y-96756196D01*
X141092429Y-96750235D01*
X141069329Y-96741970D01*
X141047151Y-96731480D01*
X141026107Y-96718867D01*
X141006402Y-96704253D01*
X140988223Y-96687777D01*
X140971747Y-96669598D01*
X140957133Y-96649893D01*
X140944520Y-96628849D01*
X140934030Y-96606671D01*
X140925765Y-96583571D01*
X140919804Y-96559773D01*
X140916204Y-96535504D01*
X140915000Y-96511000D01*
X140915000Y-95761000D01*
X140916204Y-95736496D01*
X140919804Y-95712227D01*
X140925765Y-95688429D01*
X140934030Y-95665329D01*
X140944520Y-95643151D01*
X140957133Y-95622107D01*
X140971747Y-95602402D01*
X140988223Y-95584223D01*
X141006402Y-95567747D01*
X141026107Y-95553133D01*
X141047151Y-95540520D01*
X141069329Y-95530030D01*
X141092429Y-95521765D01*
X141116227Y-95515804D01*
X141140496Y-95512204D01*
X141165000Y-95511000D01*
X143315000Y-95511000D01*
X143339504Y-95512204D01*
X143339504Y-95512204D01*
G37*
D18*
X142240000Y-96136000D03*
D17*
G36*
X143339504Y-98312204D02*
G01*
X143363773Y-98315804D01*
X143387571Y-98321765D01*
X143410671Y-98330030D01*
X143432849Y-98340520D01*
X143453893Y-98353133D01*
X143473598Y-98367747D01*
X143491777Y-98384223D01*
X143508253Y-98402402D01*
X143522867Y-98422107D01*
X143535480Y-98443151D01*
X143545970Y-98465329D01*
X143554235Y-98488429D01*
X143560196Y-98512227D01*
X143563796Y-98536496D01*
X143565000Y-98561000D01*
X143565000Y-99311000D01*
X143563796Y-99335504D01*
X143560196Y-99359773D01*
X143554235Y-99383571D01*
X143545970Y-99406671D01*
X143535480Y-99428849D01*
X143522867Y-99449893D01*
X143508253Y-99469598D01*
X143491777Y-99487777D01*
X143473598Y-99504253D01*
X143453893Y-99518867D01*
X143432849Y-99531480D01*
X143410671Y-99541970D01*
X143387571Y-99550235D01*
X143363773Y-99556196D01*
X143339504Y-99559796D01*
X143315000Y-99561000D01*
X141165000Y-99561000D01*
X141140496Y-99559796D01*
X141116227Y-99556196D01*
X141092429Y-99550235D01*
X141069329Y-99541970D01*
X141047151Y-99531480D01*
X141026107Y-99518867D01*
X141006402Y-99504253D01*
X140988223Y-99487777D01*
X140971747Y-99469598D01*
X140957133Y-99449893D01*
X140944520Y-99428849D01*
X140934030Y-99406671D01*
X140925765Y-99383571D01*
X140919804Y-99359773D01*
X140916204Y-99335504D01*
X140915000Y-99311000D01*
X140915000Y-98561000D01*
X140916204Y-98536496D01*
X140919804Y-98512227D01*
X140925765Y-98488429D01*
X140934030Y-98465329D01*
X140944520Y-98443151D01*
X140957133Y-98422107D01*
X140971747Y-98402402D01*
X140988223Y-98384223D01*
X141006402Y-98367747D01*
X141026107Y-98353133D01*
X141047151Y-98340520D01*
X141069329Y-98330030D01*
X141092429Y-98321765D01*
X141116227Y-98315804D01*
X141140496Y-98312204D01*
X141165000Y-98311000D01*
X143315000Y-98311000D01*
X143339504Y-98312204D01*
X143339504Y-98312204D01*
G37*
D18*
X142240000Y-98936000D03*
D17*
G36*
X143339504Y-104916204D02*
G01*
X143363773Y-104919804D01*
X143387571Y-104925765D01*
X143410671Y-104934030D01*
X143432849Y-104944520D01*
X143453893Y-104957133D01*
X143473598Y-104971747D01*
X143491777Y-104988223D01*
X143508253Y-105006402D01*
X143522867Y-105026107D01*
X143535480Y-105047151D01*
X143545970Y-105069329D01*
X143554235Y-105092429D01*
X143560196Y-105116227D01*
X143563796Y-105140496D01*
X143565000Y-105165000D01*
X143565000Y-105915000D01*
X143563796Y-105939504D01*
X143560196Y-105963773D01*
X143554235Y-105987571D01*
X143545970Y-106010671D01*
X143535480Y-106032849D01*
X143522867Y-106053893D01*
X143508253Y-106073598D01*
X143491777Y-106091777D01*
X143473598Y-106108253D01*
X143453893Y-106122867D01*
X143432849Y-106135480D01*
X143410671Y-106145970D01*
X143387571Y-106154235D01*
X143363773Y-106160196D01*
X143339504Y-106163796D01*
X143315000Y-106165000D01*
X141165000Y-106165000D01*
X141140496Y-106163796D01*
X141116227Y-106160196D01*
X141092429Y-106154235D01*
X141069329Y-106145970D01*
X141047151Y-106135480D01*
X141026107Y-106122867D01*
X141006402Y-106108253D01*
X140988223Y-106091777D01*
X140971747Y-106073598D01*
X140957133Y-106053893D01*
X140944520Y-106032849D01*
X140934030Y-106010671D01*
X140925765Y-105987571D01*
X140919804Y-105963773D01*
X140916204Y-105939504D01*
X140915000Y-105915000D01*
X140915000Y-105165000D01*
X140916204Y-105140496D01*
X140919804Y-105116227D01*
X140925765Y-105092429D01*
X140934030Y-105069329D01*
X140944520Y-105047151D01*
X140957133Y-105026107D01*
X140971747Y-105006402D01*
X140988223Y-104988223D01*
X141006402Y-104971747D01*
X141026107Y-104957133D01*
X141047151Y-104944520D01*
X141069329Y-104934030D01*
X141092429Y-104925765D01*
X141116227Y-104919804D01*
X141140496Y-104916204D01*
X141165000Y-104915000D01*
X143315000Y-104915000D01*
X143339504Y-104916204D01*
X143339504Y-104916204D01*
G37*
D18*
X142240000Y-105540000D03*
D17*
G36*
X143339504Y-102116204D02*
G01*
X143363773Y-102119804D01*
X143387571Y-102125765D01*
X143410671Y-102134030D01*
X143432849Y-102144520D01*
X143453893Y-102157133D01*
X143473598Y-102171747D01*
X143491777Y-102188223D01*
X143508253Y-102206402D01*
X143522867Y-102226107D01*
X143535480Y-102247151D01*
X143545970Y-102269329D01*
X143554235Y-102292429D01*
X143560196Y-102316227D01*
X143563796Y-102340496D01*
X143565000Y-102365000D01*
X143565000Y-103115000D01*
X143563796Y-103139504D01*
X143560196Y-103163773D01*
X143554235Y-103187571D01*
X143545970Y-103210671D01*
X143535480Y-103232849D01*
X143522867Y-103253893D01*
X143508253Y-103273598D01*
X143491777Y-103291777D01*
X143473598Y-103308253D01*
X143453893Y-103322867D01*
X143432849Y-103335480D01*
X143410671Y-103345970D01*
X143387571Y-103354235D01*
X143363773Y-103360196D01*
X143339504Y-103363796D01*
X143315000Y-103365000D01*
X141165000Y-103365000D01*
X141140496Y-103363796D01*
X141116227Y-103360196D01*
X141092429Y-103354235D01*
X141069329Y-103345970D01*
X141047151Y-103335480D01*
X141026107Y-103322867D01*
X141006402Y-103308253D01*
X140988223Y-103291777D01*
X140971747Y-103273598D01*
X140957133Y-103253893D01*
X140944520Y-103232849D01*
X140934030Y-103210671D01*
X140925765Y-103187571D01*
X140919804Y-103163773D01*
X140916204Y-103139504D01*
X140915000Y-103115000D01*
X140915000Y-102365000D01*
X140916204Y-102340496D01*
X140919804Y-102316227D01*
X140925765Y-102292429D01*
X140934030Y-102269329D01*
X140944520Y-102247151D01*
X140957133Y-102226107D01*
X140971747Y-102206402D01*
X140988223Y-102188223D01*
X141006402Y-102171747D01*
X141026107Y-102157133D01*
X141047151Y-102144520D01*
X141069329Y-102134030D01*
X141092429Y-102125765D01*
X141116227Y-102119804D01*
X141140496Y-102116204D01*
X141165000Y-102115000D01*
X143315000Y-102115000D01*
X143339504Y-102116204D01*
X143339504Y-102116204D01*
G37*
D18*
X142240000Y-102740000D03*
D17*
G36*
X143339504Y-108596204D02*
G01*
X143363773Y-108599804D01*
X143387571Y-108605765D01*
X143410671Y-108614030D01*
X143432849Y-108624520D01*
X143453893Y-108637133D01*
X143473598Y-108651747D01*
X143491777Y-108668223D01*
X143508253Y-108686402D01*
X143522867Y-108706107D01*
X143535480Y-108727151D01*
X143545970Y-108749329D01*
X143554235Y-108772429D01*
X143560196Y-108796227D01*
X143563796Y-108820496D01*
X143565000Y-108845000D01*
X143565000Y-109595000D01*
X143563796Y-109619504D01*
X143560196Y-109643773D01*
X143554235Y-109667571D01*
X143545970Y-109690671D01*
X143535480Y-109712849D01*
X143522867Y-109733893D01*
X143508253Y-109753598D01*
X143491777Y-109771777D01*
X143473598Y-109788253D01*
X143453893Y-109802867D01*
X143432849Y-109815480D01*
X143410671Y-109825970D01*
X143387571Y-109834235D01*
X143363773Y-109840196D01*
X143339504Y-109843796D01*
X143315000Y-109845000D01*
X141165000Y-109845000D01*
X141140496Y-109843796D01*
X141116227Y-109840196D01*
X141092429Y-109834235D01*
X141069329Y-109825970D01*
X141047151Y-109815480D01*
X141026107Y-109802867D01*
X141006402Y-109788253D01*
X140988223Y-109771777D01*
X140971747Y-109753598D01*
X140957133Y-109733893D01*
X140944520Y-109712849D01*
X140934030Y-109690671D01*
X140925765Y-109667571D01*
X140919804Y-109643773D01*
X140916204Y-109619504D01*
X140915000Y-109595000D01*
X140915000Y-108845000D01*
X140916204Y-108820496D01*
X140919804Y-108796227D01*
X140925765Y-108772429D01*
X140934030Y-108749329D01*
X140944520Y-108727151D01*
X140957133Y-108706107D01*
X140971747Y-108686402D01*
X140988223Y-108668223D01*
X141006402Y-108651747D01*
X141026107Y-108637133D01*
X141047151Y-108624520D01*
X141069329Y-108614030D01*
X141092429Y-108605765D01*
X141116227Y-108599804D01*
X141140496Y-108596204D01*
X141165000Y-108595000D01*
X143315000Y-108595000D01*
X143339504Y-108596204D01*
X143339504Y-108596204D01*
G37*
D18*
X142240000Y-109220000D03*
D17*
G36*
X143339504Y-111396204D02*
G01*
X143363773Y-111399804D01*
X143387571Y-111405765D01*
X143410671Y-111414030D01*
X143432849Y-111424520D01*
X143453893Y-111437133D01*
X143473598Y-111451747D01*
X143491777Y-111468223D01*
X143508253Y-111486402D01*
X143522867Y-111506107D01*
X143535480Y-111527151D01*
X143545970Y-111549329D01*
X143554235Y-111572429D01*
X143560196Y-111596227D01*
X143563796Y-111620496D01*
X143565000Y-111645000D01*
X143565000Y-112395000D01*
X143563796Y-112419504D01*
X143560196Y-112443773D01*
X143554235Y-112467571D01*
X143545970Y-112490671D01*
X143535480Y-112512849D01*
X143522867Y-112533893D01*
X143508253Y-112553598D01*
X143491777Y-112571777D01*
X143473598Y-112588253D01*
X143453893Y-112602867D01*
X143432849Y-112615480D01*
X143410671Y-112625970D01*
X143387571Y-112634235D01*
X143363773Y-112640196D01*
X143339504Y-112643796D01*
X143315000Y-112645000D01*
X141165000Y-112645000D01*
X141140496Y-112643796D01*
X141116227Y-112640196D01*
X141092429Y-112634235D01*
X141069329Y-112625970D01*
X141047151Y-112615480D01*
X141026107Y-112602867D01*
X141006402Y-112588253D01*
X140988223Y-112571777D01*
X140971747Y-112553598D01*
X140957133Y-112533893D01*
X140944520Y-112512849D01*
X140934030Y-112490671D01*
X140925765Y-112467571D01*
X140919804Y-112443773D01*
X140916204Y-112419504D01*
X140915000Y-112395000D01*
X140915000Y-111645000D01*
X140916204Y-111620496D01*
X140919804Y-111596227D01*
X140925765Y-111572429D01*
X140934030Y-111549329D01*
X140944520Y-111527151D01*
X140957133Y-111506107D01*
X140971747Y-111486402D01*
X140988223Y-111468223D01*
X141006402Y-111451747D01*
X141026107Y-111437133D01*
X141047151Y-111424520D01*
X141069329Y-111414030D01*
X141092429Y-111405765D01*
X141116227Y-111399804D01*
X141140496Y-111396204D01*
X141165000Y-111395000D01*
X143315000Y-111395000D01*
X143339504Y-111396204D01*
X143339504Y-111396204D01*
G37*
D18*
X142240000Y-112020000D03*
D11*
X166624000Y-80772000D03*
X166624000Y-78232000D03*
X166624000Y-75692000D03*
X166624000Y-73152000D03*
X166624000Y-70612000D03*
X166624000Y-68072000D03*
X166624000Y-65532000D03*
X166624000Y-62992000D03*
X166624000Y-60452000D03*
D12*
X166624000Y-57912000D03*
D11*
X168402000Y-49276000D03*
X165862000Y-49276000D03*
X163322000Y-49276000D03*
X160782000Y-49276000D03*
X158242000Y-49276000D03*
X155702000Y-49276000D03*
X153162000Y-49276000D03*
X150622000Y-49276000D03*
X148082000Y-49276000D03*
D12*
X145542000Y-49276000D03*
D11*
X138938000Y-49276000D03*
X136398000Y-49276000D03*
X133858000Y-49276000D03*
X131318000Y-49276000D03*
X128778000Y-49276000D03*
X126238000Y-49276000D03*
X123698000Y-49276000D03*
X121158000Y-49276000D03*
X118618000Y-49276000D03*
D12*
X116078000Y-49276000D03*
D11*
X117856000Y-57912000D03*
X117856000Y-60452000D03*
X117856000Y-62992000D03*
X117856000Y-65532000D03*
X117856000Y-68072000D03*
X117856000Y-70612000D03*
X117856000Y-73152000D03*
X117856000Y-75692000D03*
X117856000Y-78232000D03*
D12*
X117856000Y-80772000D03*
D11*
X117856000Y-87376000D03*
X117856000Y-89916000D03*
X117856000Y-92456000D03*
X117856000Y-94996000D03*
X117856000Y-97536000D03*
X117856000Y-100076000D03*
X117856000Y-102616000D03*
X117856000Y-105156000D03*
X117856000Y-107696000D03*
D12*
X117856000Y-110236000D03*
M02*
