M48
; DRILL file {KiCad (5.1.2-1)-1} date Tuesday, July 02, 2019 at 06:04:37 PM
; FORMAT={-:-/ absolute / inch / decimal}
; #@! TF.CreationDate,2019-07-02T18:04:37-05:00
; #@! TF.GenerationSoftware,Kicad,Pcbnew,(5.1.2-1)-1
FMAT,2
INCH
T1C0.0157
T2C0.0276
T3C0.0400
T4C0.0433
%
G90
G05
T1
X5.1201Y-2.9054
X5.1691Y-3.1405
X5.217Y-2.8562
X5.266Y-2.8863
X5.3458Y-4.2096
X5.3458Y-3.4073
X5.3461Y-4.1502
X5.3528Y-2.9653
X5.3968Y-3.5329
X5.4248Y-2.8562
X5.4376Y-3.9752
X5.6Y-2.5462
X5.6024Y-3.8465
X5.6729Y-3.3125
X5.6768Y-4.4365
X5.6849Y-3.4002
X5.6933Y-3.0567
X5.7326Y-3.4744
X5.8466Y-3.2831
X5.8467Y-3.4741
X5.9753Y-3.3007
X5.9758Y-3.9344
X5.9759Y-4.2411
X5.9826Y-2.7293
X6.0179Y-3.5576
X6.0214Y-4.0541
X6.034Y-3.2149
X6.1681Y-4.11
X6.1743Y-3.098
X6.1783Y-4.1676
X6.258Y-2.9988
X6.4591Y-2.7391
X6.4803Y-2.4084
T2
X6.74Y-4.79
X4.45Y-4.79
X4.45Y-1.75
X6.74Y-1.75
T3
X4.65Y-4.6
X4.65Y-4.7
X4.75Y-4.6
X4.75Y-4.7
X4.85Y-4.6
X4.85Y-4.7
X4.95Y-4.6
X4.95Y-4.7
X5.05Y-4.6
X5.05Y-4.7
X5.15Y-4.6
X5.15Y-4.7
X5.25Y-4.6
X5.25Y-4.7
X5.35Y-4.6
X5.35Y-4.7
X5.45Y-4.6
X5.45Y-4.7
X5.55Y-4.6
X5.55Y-4.7
X5.65Y-4.6
X5.65Y-4.7
X5.75Y-4.6
X5.75Y-4.7
X5.85Y-4.6
X5.85Y-4.7
X5.95Y-4.6
X5.95Y-4.7
X6.05Y-4.6
X6.05Y-4.7
X6.15Y-4.6
X6.15Y-4.7
X6.25Y-4.6
X6.25Y-4.7
X6.35Y-4.6
X6.35Y-4.7
X6.45Y-4.6
X6.45Y-4.7
X6.55Y-4.6
X6.55Y-4.7
T4
X6.56Y-3.45
X6.56Y-3.55
X6.56Y-3.65
X6.56Y-3.75
X6.56Y-3.85
X6.56Y-3.95
X6.56Y-4.05
X6.56Y-4.15
X6.56Y-4.25
X6.56Y-4.35
X4.64Y-2.28
X4.64Y-2.38
X4.64Y-2.48
X4.64Y-2.58
X4.64Y-2.68
X4.64Y-2.78
X4.64Y-2.88
X4.64Y-2.98
X4.64Y-3.08
X4.64Y-3.18
X5.73Y-1.94
X5.83Y-1.94
X5.93Y-1.94
X6.03Y-1.94
X6.13Y-1.94
X6.23Y-1.94
X6.33Y-1.94
X6.43Y-1.94
X6.53Y-1.94
X6.63Y-1.94
X4.57Y-1.94
X4.67Y-1.94
X4.77Y-1.94
X4.87Y-1.94
X4.97Y-1.94
X5.07Y-1.94
X5.17Y-1.94
X5.27Y-1.94
X5.37Y-1.94
X5.47Y-1.94
X4.64Y-3.44
X4.64Y-3.54
X4.64Y-3.64
X4.64Y-3.74
X4.64Y-3.84
X4.64Y-3.94
X4.64Y-4.04
X4.64Y-4.14
X4.64Y-4.24
X4.64Y-4.34
X6.56Y-2.28
X6.56Y-2.38
X6.56Y-2.48
X6.56Y-2.58
X6.56Y-2.68
X6.56Y-2.78
X6.56Y-2.88
X6.56Y-2.98
X6.56Y-3.08
X6.56Y-3.18
T0
M30
