G04 #@! TF.GenerationSoftware,KiCad,Pcbnew,(5.1.2-1)-1*
G04 #@! TF.CreationDate,2019-07-02T18:03:37-05:00*
G04 #@! TF.ProjectId,multiSPI,6d756c74-6953-4504-992e-6b696361645f,rev?*
G04 #@! TF.SameCoordinates,Original*
G04 #@! TF.FileFunction,Legend,Top*
G04 #@! TF.FilePolarity,Positive*
%FSLAX46Y46*%
G04 Gerber Fmt 4.6, Leading zero omitted, Abs format (unit mm)*
G04 Created by KiCad (PCBNEW (5.1.2-1)-1) date 2019-07-02 18:03:37*
%MOMM*%
%LPD*%
G04 APERTURE LIST*
%ADD10C,0.120000*%
%ADD11C,0.100000*%
%ADD12C,0.152400*%
%ADD13C,0.150000*%
%ADD14C,0.050000*%
%ADD15C,0.127000*%
%ADD16C,0.101600*%
G04 APERTURE END LIST*
D10*
X163014000Y-85770000D02*
X163014000Y-86170000D01*
X163654000Y-85770000D02*
X163014000Y-85770000D01*
X169994000Y-112110000D02*
X163254000Y-112110000D01*
X169994000Y-86010000D02*
X163254000Y-86010000D01*
X163254000Y-86010000D02*
X163254000Y-112110000D01*
X169994000Y-86010000D02*
X169994000Y-112110000D01*
X168874000Y-86010000D02*
X168874000Y-112110000D01*
X163774000Y-86010000D02*
X163774000Y-112110000D01*
D11*
X152857200Y-100025200D02*
G75*
G02X152247600Y-100025200I-304800J0D01*
G01*
D12*
X152247600Y-100025200D02*
X151384000Y-100025200D01*
X152857200Y-100025200D02*
X152247600Y-100025200D01*
X153695400Y-100025200D02*
X152857200Y-100025200D01*
X151384000Y-110032800D02*
X153695400Y-110032800D01*
D11*
X152857200Y-79705200D02*
G75*
G02X152247600Y-79705200I-304800J0D01*
G01*
D12*
X152247600Y-79705200D02*
X151384000Y-79705200D01*
X152857200Y-79705200D02*
X152247600Y-79705200D01*
X153695400Y-79705200D02*
X152857200Y-79705200D01*
X151384000Y-89712800D02*
X153695400Y-89712800D01*
D11*
X156337000Y-68884800D02*
G75*
G02X156337000Y-68275200I0J304800D01*
G01*
D12*
X156337000Y-68275200D02*
X156337000Y-67462400D01*
X156337000Y-68884800D02*
X156337000Y-68275200D01*
X156337000Y-69697600D02*
X156337000Y-68884800D01*
X146431000Y-67462400D02*
X146431000Y-69697600D01*
D11*
X138049000Y-68884800D02*
G75*
G02X138049000Y-68275200I0J304800D01*
G01*
D12*
X138049000Y-68275200D02*
X138049000Y-67462400D01*
X138049000Y-68884800D02*
X138049000Y-68275200D01*
X138049000Y-69697600D02*
X138049000Y-68884800D01*
X128143000Y-67462400D02*
X128143000Y-69697600D01*
D11*
X132130800Y-79629000D02*
G75*
G02X131521200Y-79629000I-304800J0D01*
G01*
D12*
X131521200Y-79629000D02*
X130708400Y-79629000D01*
X132130800Y-79629000D02*
X131521200Y-79629000D01*
X132943600Y-79629000D02*
X132130800Y-79629000D01*
X130708400Y-89535000D02*
X132943600Y-89535000D01*
D11*
X132130800Y-99949000D02*
G75*
G02X131521200Y-99949000I-304800J0D01*
G01*
D12*
X131521200Y-99949000D02*
X130708400Y-99949000D01*
X132130800Y-99949000D02*
X131521200Y-99949000D01*
X132943600Y-99949000D02*
X132130800Y-99949000D01*
X130708400Y-109855000D02*
X132943600Y-109855000D01*
X167640000Y-116205000D02*
X167640000Y-120015000D01*
X165100000Y-120015000D02*
X165735000Y-120650000D01*
X167005000Y-120650000D02*
X165735000Y-120650000D01*
X167640000Y-120015000D02*
X167005000Y-120650000D01*
X167005000Y-115570000D02*
X167640000Y-116205000D01*
X167005000Y-115570000D02*
X165735000Y-115570000D01*
X165100000Y-116205000D02*
X165735000Y-115570000D01*
X165100000Y-116205000D02*
X165100000Y-120015000D01*
X162560000Y-116205000D02*
X162560000Y-120015000D01*
X160020000Y-116205000D02*
X160020000Y-120015000D01*
X157480000Y-116205000D02*
X157480000Y-120015000D01*
X154940000Y-116205000D02*
X154940000Y-120015000D01*
X152400000Y-116205000D02*
X152400000Y-120015000D01*
X149860000Y-116205000D02*
X149860000Y-120015000D01*
X147320000Y-116205000D02*
X147320000Y-120015000D01*
X144780000Y-116205000D02*
X144780000Y-120015000D01*
X142240000Y-116205000D02*
X142240000Y-120015000D01*
X139700000Y-116205000D02*
X139700000Y-120015000D01*
X137160000Y-116205000D02*
X137160000Y-120015000D01*
X134620000Y-116205000D02*
X134620000Y-120015000D01*
X132080000Y-116205000D02*
X132080000Y-120015000D01*
X129540000Y-116205000D02*
X129540000Y-120015000D01*
X127000000Y-116205000D02*
X127000000Y-120015000D01*
X124460000Y-116205000D02*
X124460000Y-120015000D01*
X121920000Y-116205000D02*
X121920000Y-120015000D01*
X119380000Y-116205000D02*
X119380000Y-120015000D01*
X132080000Y-120015000D02*
X132715000Y-120650000D01*
X133985000Y-120650000D02*
X132715000Y-120650000D01*
X134620000Y-120015000D02*
X133985000Y-120650000D01*
X134620000Y-120015000D02*
X135255000Y-120650000D01*
X136525000Y-120650000D02*
X135255000Y-120650000D01*
X137160000Y-120015000D02*
X136525000Y-120650000D01*
X137160000Y-120015000D02*
X137795000Y-120650000D01*
X139065000Y-120650000D02*
X137795000Y-120650000D01*
X139700000Y-120015000D02*
X139065000Y-120650000D01*
X139700000Y-120015000D02*
X140335000Y-120650000D01*
X141605000Y-120650000D02*
X140335000Y-120650000D01*
X142240000Y-120015000D02*
X141605000Y-120650000D01*
X142240000Y-120015000D02*
X142875000Y-120650000D01*
X144145000Y-120650000D02*
X142875000Y-120650000D01*
X144780000Y-120015000D02*
X144145000Y-120650000D01*
X144780000Y-120015000D02*
X145415000Y-120650000D01*
X146685000Y-120650000D02*
X145415000Y-120650000D01*
X147320000Y-120015000D02*
X146685000Y-120650000D01*
X147320000Y-120015000D02*
X147955000Y-120650000D01*
X149225000Y-120650000D02*
X147955000Y-120650000D01*
X149860000Y-120015000D02*
X149225000Y-120650000D01*
X149860000Y-120015000D02*
X150495000Y-120650000D01*
X151765000Y-120650000D02*
X150495000Y-120650000D01*
X152400000Y-120015000D02*
X151765000Y-120650000D01*
X153035000Y-120650000D02*
X152400000Y-120015000D01*
X153035000Y-120650000D02*
X154305000Y-120650000D01*
X154940000Y-120015000D02*
X154305000Y-120650000D01*
X155575000Y-120650000D02*
X154940000Y-120015000D01*
X155575000Y-120650000D02*
X156845000Y-120650000D01*
X157480000Y-120015000D02*
X156845000Y-120650000D01*
X157480000Y-120015000D02*
X158115000Y-120650000D01*
X159385000Y-120650000D02*
X158115000Y-120650000D01*
X160020000Y-120015000D02*
X159385000Y-120650000D01*
X160020000Y-120015000D02*
X160655000Y-120650000D01*
X161925000Y-120650000D02*
X160655000Y-120650000D01*
X162560000Y-120015000D02*
X161925000Y-120650000D01*
X162560000Y-120015000D02*
X163195000Y-120650000D01*
X164465000Y-120650000D02*
X163195000Y-120650000D01*
X165100000Y-120015000D02*
X164465000Y-120650000D01*
X164465000Y-115570000D02*
X165100000Y-116205000D01*
X164465000Y-115570000D02*
X163195000Y-115570000D01*
X162560000Y-116205000D02*
X163195000Y-115570000D01*
X161925000Y-115570000D02*
X162560000Y-116205000D01*
X161925000Y-115570000D02*
X160655000Y-115570000D01*
X160020000Y-116205000D02*
X160655000Y-115570000D01*
X159385000Y-115570000D02*
X160020000Y-116205000D01*
X159385000Y-115570000D02*
X158115000Y-115570000D01*
X157480000Y-116205000D02*
X158115000Y-115570000D01*
X156845000Y-115570000D02*
X157480000Y-116205000D01*
X156845000Y-115570000D02*
X155575000Y-115570000D01*
X154940000Y-116205000D02*
X155575000Y-115570000D01*
X154305000Y-115570000D02*
X154940000Y-116205000D01*
X154305000Y-115570000D02*
X153035000Y-115570000D01*
X152400000Y-116205000D02*
X153035000Y-115570000D01*
X151765000Y-115570000D02*
X152400000Y-116205000D01*
X151765000Y-115570000D02*
X150495000Y-115570000D01*
X149860000Y-116205000D02*
X150495000Y-115570000D01*
X149225000Y-115570000D02*
X149860000Y-116205000D01*
X149225000Y-115570000D02*
X147955000Y-115570000D01*
X147320000Y-116205000D02*
X147955000Y-115570000D01*
X147320000Y-116205000D02*
X146685000Y-115570000D01*
X145415000Y-115570000D02*
X146685000Y-115570000D01*
X144780000Y-116205000D02*
X145415000Y-115570000D01*
X144145000Y-115570000D02*
X144780000Y-116205000D01*
X142875000Y-115570000D02*
X144145000Y-115570000D01*
X142240000Y-116205000D02*
X142875000Y-115570000D01*
X141605000Y-115570000D02*
X142240000Y-116205000D01*
X140335000Y-115570000D02*
X141605000Y-115570000D01*
X139700000Y-116205000D02*
X140335000Y-115570000D01*
X139065000Y-115570000D02*
X139700000Y-116205000D01*
X137795000Y-115570000D02*
X139065000Y-115570000D01*
X137160000Y-116205000D02*
X137795000Y-115570000D01*
X136525000Y-115570000D02*
X137160000Y-116205000D01*
X135255000Y-115570000D02*
X136525000Y-115570000D01*
X134620000Y-116205000D02*
X135255000Y-115570000D01*
X133985000Y-115570000D02*
X134620000Y-116205000D01*
X132715000Y-115570000D02*
X133985000Y-115570000D01*
X132080000Y-116205000D02*
X132715000Y-115570000D01*
X131445000Y-115570000D02*
X132080000Y-116205000D01*
X130175000Y-115570000D02*
X131445000Y-115570000D01*
X129540000Y-116205000D02*
X130175000Y-115570000D01*
X128905000Y-115570000D02*
X129540000Y-116205000D01*
X127635000Y-115570000D02*
X128905000Y-115570000D01*
X127000000Y-116205000D02*
X127635000Y-115570000D01*
X126365000Y-115570000D02*
X127000000Y-116205000D01*
X125095000Y-115570000D02*
X126365000Y-115570000D01*
X124460000Y-116205000D02*
X125095000Y-115570000D01*
X123825000Y-115570000D02*
X124460000Y-116205000D01*
X122555000Y-115570000D02*
X123825000Y-115570000D01*
X121920000Y-116205000D02*
X122555000Y-115570000D01*
X121285000Y-115570000D02*
X121920000Y-116205000D01*
X120015000Y-115570000D02*
X121285000Y-115570000D01*
X119380000Y-116205000D02*
X120015000Y-115570000D01*
X118745000Y-115570000D02*
X119380000Y-116205000D01*
X117475000Y-115570000D02*
X118745000Y-115570000D01*
X116840000Y-116205000D02*
X117475000Y-115570000D01*
X116840000Y-120015000D02*
X116840000Y-116205000D01*
X131445000Y-120650000D02*
X132080000Y-120015000D01*
X130175000Y-120650000D02*
X131445000Y-120650000D01*
X129540000Y-120015000D02*
X130175000Y-120650000D01*
X128905000Y-120650000D02*
X129540000Y-120015000D01*
X127635000Y-120650000D02*
X128905000Y-120650000D01*
X127000000Y-120015000D02*
X127635000Y-120650000D01*
X126365000Y-120650000D02*
X127000000Y-120015000D01*
X125095000Y-120650000D02*
X126365000Y-120650000D01*
X124460000Y-120015000D02*
X125095000Y-120650000D01*
X123825000Y-120650000D02*
X124460000Y-120015000D01*
X122555000Y-120650000D02*
X123825000Y-120650000D01*
X121920000Y-120015000D02*
X122555000Y-120650000D01*
X121285000Y-120650000D02*
X121920000Y-120015000D01*
X120015000Y-120650000D02*
X121285000Y-120650000D01*
X119380000Y-120015000D02*
X120015000Y-120650000D01*
X118745000Y-120650000D02*
X119380000Y-120015000D01*
X117475000Y-120650000D02*
X118745000Y-120650000D01*
X116840000Y-120015000D02*
X117475000Y-120650000D01*
D10*
X143600000Y-65118064D02*
X143600000Y-63913936D01*
X140880000Y-65118064D02*
X140880000Y-63913936D01*
X143600000Y-71722064D02*
X143600000Y-70517936D01*
X140880000Y-71722064D02*
X140880000Y-70517936D01*
X143600000Y-78326064D02*
X143600000Y-77121936D01*
X140880000Y-78326064D02*
X140880000Y-77121936D01*
X143600000Y-84930064D02*
X143600000Y-83725936D01*
X140880000Y-84930064D02*
X140880000Y-83725936D01*
X143600000Y-91534064D02*
X143600000Y-90329936D01*
X140880000Y-91534064D02*
X140880000Y-90329936D01*
X143600000Y-98138064D02*
X143600000Y-96933936D01*
X140880000Y-98138064D02*
X140880000Y-96933936D01*
X140880000Y-103537936D02*
X140880000Y-104742064D01*
X143600000Y-103537936D02*
X143600000Y-104742064D01*
X143600000Y-111222064D02*
X143600000Y-110017936D01*
X140880000Y-111222064D02*
X140880000Y-110017936D01*
X163014000Y-56052000D02*
X163014000Y-56452000D01*
X163654000Y-56052000D02*
X163014000Y-56052000D01*
X169994000Y-82392000D02*
X163254000Y-82392000D01*
X169994000Y-56292000D02*
X163254000Y-56292000D01*
X163254000Y-56292000D02*
X163254000Y-82392000D01*
X169994000Y-56292000D02*
X169994000Y-82392000D01*
X168874000Y-56292000D02*
X168874000Y-82392000D01*
X163774000Y-56292000D02*
X163774000Y-82392000D01*
X143682000Y-52886000D02*
X144082000Y-52886000D01*
X143682000Y-52246000D02*
X143682000Y-52886000D01*
X170022000Y-45906000D02*
X170022000Y-52646000D01*
X143922000Y-45906000D02*
X143922000Y-52646000D01*
X143922000Y-52646000D02*
X170022000Y-52646000D01*
X143922000Y-45906000D02*
X170022000Y-45906000D01*
X143922000Y-47026000D02*
X170022000Y-47026000D01*
X143922000Y-52126000D02*
X170022000Y-52126000D01*
X114218000Y-52886000D02*
X114618000Y-52886000D01*
X114218000Y-52246000D02*
X114218000Y-52886000D01*
X140558000Y-45906000D02*
X140558000Y-52646000D01*
X114458000Y-45906000D02*
X114458000Y-52646000D01*
X114458000Y-52646000D02*
X140558000Y-52646000D01*
X114458000Y-45906000D02*
X140558000Y-45906000D01*
X114458000Y-47026000D02*
X140558000Y-47026000D01*
X114458000Y-52126000D02*
X140558000Y-52126000D01*
X121466000Y-82632000D02*
X121466000Y-82232000D01*
X120826000Y-82632000D02*
X121466000Y-82632000D01*
X114486000Y-56292000D02*
X121226000Y-56292000D01*
X114486000Y-82392000D02*
X121226000Y-82392000D01*
X121226000Y-82392000D02*
X121226000Y-56292000D01*
X114486000Y-82392000D02*
X114486000Y-56292000D01*
X115606000Y-82392000D02*
X115606000Y-56292000D01*
X120706000Y-82392000D02*
X120706000Y-56292000D01*
X121466000Y-112096000D02*
X121466000Y-111696000D01*
X120826000Y-112096000D02*
X121466000Y-112096000D01*
X114486000Y-85756000D02*
X121226000Y-85756000D01*
X114486000Y-111856000D02*
X121226000Y-111856000D01*
X121226000Y-111856000D02*
X121226000Y-85756000D01*
X114486000Y-111856000D02*
X114486000Y-85756000D01*
X115606000Y-111856000D02*
X115606000Y-85756000D01*
X120706000Y-111856000D02*
X120706000Y-85756000D01*
D13*
X111696666Y-120118380D02*
X111363333Y-119642190D01*
X111125238Y-120118380D02*
X111125238Y-119118380D01*
X111506190Y-119118380D01*
X111601428Y-119166000D01*
X111649047Y-119213619D01*
X111696666Y-119308857D01*
X111696666Y-119451714D01*
X111649047Y-119546952D01*
X111601428Y-119594571D01*
X111506190Y-119642190D01*
X111125238Y-119642190D01*
X112125238Y-119594571D02*
X112458571Y-119594571D01*
X112601428Y-120118380D02*
X112125238Y-120118380D01*
X112125238Y-119118380D01*
X112601428Y-119118380D01*
X113363333Y-119594571D02*
X113030000Y-119594571D01*
X113030000Y-120118380D02*
X113030000Y-119118380D01*
X113506190Y-119118380D01*
X114030000Y-119118380D02*
X114030000Y-119356476D01*
X113791904Y-119261238D02*
X114030000Y-119356476D01*
X114268095Y-119261238D01*
X113887142Y-119546952D02*
X114030000Y-119356476D01*
X114172857Y-119546952D01*
X114791904Y-119118380D02*
X114791904Y-119356476D01*
X114553809Y-119261238D02*
X114791904Y-119356476D01*
X115030000Y-119261238D01*
X114649047Y-119546952D02*
X114791904Y-119356476D01*
X114934761Y-119546952D01*
X169862666Y-120118380D02*
X169529333Y-119642190D01*
X169291238Y-120118380D02*
X169291238Y-119118380D01*
X169672190Y-119118380D01*
X169767428Y-119166000D01*
X169815047Y-119213619D01*
X169862666Y-119308857D01*
X169862666Y-119451714D01*
X169815047Y-119546952D01*
X169767428Y-119594571D01*
X169672190Y-119642190D01*
X169291238Y-119642190D01*
X170291238Y-119594571D02*
X170624571Y-119594571D01*
X170767428Y-120118380D02*
X170291238Y-120118380D01*
X170291238Y-119118380D01*
X170767428Y-119118380D01*
X171529333Y-119594571D02*
X171196000Y-119594571D01*
X171196000Y-120118380D02*
X171196000Y-119118380D01*
X171672190Y-119118380D01*
X172196000Y-119118380D02*
X172196000Y-119356476D01*
X171957904Y-119261238D02*
X172196000Y-119356476D01*
X172434095Y-119261238D01*
X172053142Y-119546952D02*
X172196000Y-119356476D01*
X172338857Y-119546952D01*
X172957904Y-119118380D02*
X172957904Y-119356476D01*
X172719809Y-119261238D02*
X172957904Y-119356476D01*
X173196000Y-119261238D01*
X172815047Y-119546952D02*
X172957904Y-119356476D01*
X173100761Y-119546952D01*
X169862666Y-42902380D02*
X169529333Y-42426190D01*
X169291238Y-42902380D02*
X169291238Y-41902380D01*
X169672190Y-41902380D01*
X169767428Y-41950000D01*
X169815047Y-41997619D01*
X169862666Y-42092857D01*
X169862666Y-42235714D01*
X169815047Y-42330952D01*
X169767428Y-42378571D01*
X169672190Y-42426190D01*
X169291238Y-42426190D01*
X170291238Y-42378571D02*
X170624571Y-42378571D01*
X170767428Y-42902380D02*
X170291238Y-42902380D01*
X170291238Y-41902380D01*
X170767428Y-41902380D01*
X171529333Y-42378571D02*
X171196000Y-42378571D01*
X171196000Y-42902380D02*
X171196000Y-41902380D01*
X171672190Y-41902380D01*
X172196000Y-41902380D02*
X172196000Y-42140476D01*
X171957904Y-42045238D02*
X172196000Y-42140476D01*
X172434095Y-42045238D01*
X172053142Y-42330952D02*
X172196000Y-42140476D01*
X172338857Y-42330952D01*
X172957904Y-41902380D02*
X172957904Y-42140476D01*
X172719809Y-42045238D02*
X172957904Y-42140476D01*
X173196000Y-42045238D01*
X172815047Y-42330952D02*
X172957904Y-42140476D01*
X173100761Y-42330952D01*
X111696666Y-42902380D02*
X111363333Y-42426190D01*
X111125238Y-42902380D02*
X111125238Y-41902380D01*
X111506190Y-41902380D01*
X111601428Y-41950000D01*
X111649047Y-41997619D01*
X111696666Y-42092857D01*
X111696666Y-42235714D01*
X111649047Y-42330952D01*
X111601428Y-42378571D01*
X111506190Y-42426190D01*
X111125238Y-42426190D01*
X112125238Y-42378571D02*
X112458571Y-42378571D01*
X112601428Y-42902380D02*
X112125238Y-42902380D01*
X112125238Y-41902380D01*
X112601428Y-41902380D01*
X113363333Y-42378571D02*
X113030000Y-42378571D01*
X113030000Y-42902380D02*
X113030000Y-41902380D01*
X113506190Y-41902380D01*
X114030000Y-41902380D02*
X114030000Y-42140476D01*
X113791904Y-42045238D02*
X114030000Y-42140476D01*
X114268095Y-42045238D01*
X113887142Y-42330952D02*
X114030000Y-42140476D01*
X114172857Y-42330952D01*
X114791904Y-41902380D02*
X114791904Y-42140476D01*
X114553809Y-42045238D02*
X114791904Y-42140476D01*
X115030000Y-42045238D01*
X114649047Y-42330952D02*
X114791904Y-42140476D01*
X114934761Y-42330952D01*
X170446380Y-99869523D02*
X171160666Y-99869523D01*
X171303523Y-99917142D01*
X171398761Y-100012380D01*
X171446380Y-100155238D01*
X171446380Y-100250476D01*
X171446380Y-98869523D02*
X171446380Y-99440952D01*
X171446380Y-99155238D02*
X170446380Y-99155238D01*
X170589238Y-99250476D01*
X170684476Y-99345714D01*
X170732095Y-99440952D01*
X171446380Y-97917142D02*
X171446380Y-98488571D01*
X171446380Y-98202857D02*
X170446380Y-98202857D01*
X170589238Y-98298095D01*
X170684476Y-98393333D01*
X170732095Y-98488571D01*
D14*
X150685161Y-97071490D02*
X150685161Y-98401643D01*
X150763405Y-98558132D01*
X150841650Y-98636376D01*
X150998138Y-98714620D01*
X151311115Y-98714620D01*
X151467604Y-98636376D01*
X151545848Y-98558132D01*
X151624092Y-98401643D01*
X151624092Y-97071490D01*
X153110734Y-97071490D02*
X152797757Y-97071490D01*
X152641268Y-97149735D01*
X152563024Y-97227979D01*
X152406535Y-97462712D01*
X152328291Y-97775689D01*
X152328291Y-98401643D01*
X152406535Y-98558132D01*
X152484780Y-98636376D01*
X152641268Y-98714620D01*
X152954245Y-98714620D01*
X153110734Y-98636376D01*
X153188978Y-98558132D01*
X153267222Y-98401643D01*
X153267222Y-98010422D01*
X153188978Y-97853933D01*
X153110734Y-97775689D01*
X152954245Y-97697445D01*
X152641268Y-97697445D01*
X152484780Y-97775689D01*
X152406535Y-97853933D01*
X152328291Y-98010422D01*
X146860825Y-111194625D02*
X147955765Y-111194625D01*
X147251875Y-112837035D01*
X149285335Y-111742095D02*
X149285335Y-112837035D01*
X148894285Y-111116415D02*
X148503235Y-112289565D01*
X149519965Y-112289565D01*
X150145645Y-112837035D02*
X150145645Y-111194625D01*
X150145645Y-111976725D02*
X151084165Y-111976725D01*
X151084165Y-112837035D02*
X151084165Y-111194625D01*
X152804785Y-112680615D02*
X152726575Y-112758825D01*
X152491945Y-112837035D01*
X152335525Y-112837035D01*
X152100895Y-112758825D01*
X151944475Y-112602405D01*
X151866265Y-112445985D01*
X151788055Y-112133145D01*
X151788055Y-111898515D01*
X151866265Y-111585675D01*
X151944475Y-111429255D01*
X152100895Y-111272835D01*
X152335525Y-111194625D01*
X152491945Y-111194625D01*
X152726575Y-111272835D01*
X152804785Y-111351045D01*
X154290775Y-111194625D02*
X153508675Y-111194625D01*
X153430465Y-111976725D01*
X153508675Y-111898515D01*
X153665095Y-111820305D01*
X154056145Y-111820305D01*
X154212565Y-111898515D01*
X154290775Y-111976725D01*
X154368985Y-112133145D01*
X154368985Y-112524195D01*
X154290775Y-112680615D01*
X154212565Y-112758825D01*
X154056145Y-112837035D01*
X153665095Y-112837035D01*
X153508675Y-112758825D01*
X153430465Y-112680615D01*
X155151085Y-112837035D02*
X155463925Y-112837035D01*
X155620345Y-112758825D01*
X155698555Y-112680615D01*
X155854975Y-112445985D01*
X155933185Y-112133145D01*
X155933185Y-111507465D01*
X155854975Y-111351045D01*
X155776765Y-111272835D01*
X155620345Y-111194625D01*
X155307505Y-111194625D01*
X155151085Y-111272835D01*
X155072875Y-111351045D01*
X154994665Y-111507465D01*
X154994665Y-111898515D01*
X155072875Y-112054935D01*
X155151085Y-112133145D01*
X155307505Y-112211355D01*
X155620345Y-112211355D01*
X155776765Y-112133145D01*
X155854975Y-112054935D01*
X155933185Y-111898515D01*
X157419175Y-111194625D02*
X156637075Y-111194625D01*
X156558865Y-111976725D01*
X156637075Y-111898515D01*
X156793495Y-111820305D01*
X157184545Y-111820305D01*
X157340965Y-111898515D01*
X157419175Y-111976725D01*
X157497385Y-112133145D01*
X157497385Y-112524195D01*
X157419175Y-112680615D01*
X157340965Y-112758825D01*
X157184545Y-112837035D01*
X156793495Y-112837035D01*
X156637075Y-112758825D01*
X156558865Y-112680615D01*
X150686261Y-76754720D02*
X150686261Y-78084533D01*
X150764485Y-78240982D01*
X150842710Y-78319206D01*
X150999158Y-78397430D01*
X151312055Y-78397430D01*
X151468504Y-78319206D01*
X151546728Y-78240982D01*
X151624952Y-78084533D01*
X151624952Y-76754720D01*
X153189438Y-76754720D02*
X152407195Y-76754720D01*
X152328971Y-77536963D01*
X152407195Y-77458739D01*
X152563644Y-77380515D01*
X152954765Y-77380515D01*
X153111214Y-77458739D01*
X153189438Y-77536963D01*
X153267662Y-77693412D01*
X153267662Y-78084533D01*
X153189438Y-78240982D01*
X153111214Y-78319206D01*
X152954765Y-78397430D01*
X152563644Y-78397430D01*
X152407195Y-78319206D01*
X152328971Y-78240982D01*
X147097946Y-90874079D02*
X148192540Y-90874079D01*
X147488873Y-92515969D01*
X149521689Y-91421376D02*
X149521689Y-92515969D01*
X149130763Y-90795894D02*
X148739836Y-91968673D01*
X149756245Y-91968673D01*
X151163579Y-92515969D02*
X150381726Y-92515969D01*
X150381726Y-90874079D01*
X151632690Y-92437784D02*
X151867246Y-92515969D01*
X152258172Y-92515969D01*
X152414543Y-92437784D01*
X152492728Y-92359599D01*
X152570913Y-92203228D01*
X152570913Y-92046858D01*
X152492728Y-91890487D01*
X152414543Y-91812302D01*
X152258172Y-91734117D01*
X151945431Y-91655932D01*
X151789061Y-91577746D01*
X151710875Y-91499561D01*
X151632690Y-91343191D01*
X151632690Y-91186820D01*
X151710875Y-91030450D01*
X151789061Y-90952265D01*
X151945431Y-90874079D01*
X152336357Y-90874079D01*
X152570913Y-90952265D01*
X154134618Y-92515969D02*
X153196395Y-92515969D01*
X153665506Y-92515969D02*
X153665506Y-90874079D01*
X153509136Y-91108635D01*
X153352765Y-91265005D01*
X153196395Y-91343191D01*
X154681915Y-90874079D02*
X155698323Y-90874079D01*
X155151026Y-91499561D01*
X155385582Y-91499561D01*
X155541952Y-91577746D01*
X155620137Y-91655932D01*
X155698323Y-91812302D01*
X155698323Y-92203228D01*
X155620137Y-92359599D01*
X155541952Y-92437784D01*
X155385582Y-92515969D01*
X154916470Y-92515969D01*
X154760100Y-92437784D01*
X154681915Y-92359599D01*
X156636545Y-91577746D02*
X156480175Y-91499561D01*
X156401990Y-91421376D01*
X156323805Y-91265005D01*
X156323805Y-91186820D01*
X156401990Y-91030450D01*
X156480175Y-90952265D01*
X156636545Y-90874079D01*
X156949286Y-90874079D01*
X157105657Y-90952265D01*
X157183842Y-91030450D01*
X157262027Y-91186820D01*
X157262027Y-91265005D01*
X157183842Y-91421376D01*
X157105657Y-91499561D01*
X156949286Y-91577746D01*
X156636545Y-91577746D01*
X156480175Y-91655932D01*
X156401990Y-91734117D01*
X156323805Y-91890487D01*
X156323805Y-92203228D01*
X156401990Y-92359599D01*
X156480175Y-92437784D01*
X156636545Y-92515969D01*
X156949286Y-92515969D01*
X157105657Y-92437784D01*
X157183842Y-92359599D01*
X157262027Y-92203228D01*
X157262027Y-91890487D01*
X157183842Y-91734117D01*
X157105657Y-91655932D01*
X156949286Y-91577746D01*
X157274702Y-69602121D02*
X158603891Y-69602121D01*
X158760267Y-69523934D01*
X158838454Y-69445746D01*
X158916642Y-69289371D01*
X158916642Y-68976620D01*
X158838454Y-68820245D01*
X158760267Y-68742058D01*
X158603891Y-68663870D01*
X157274702Y-68663870D01*
X157822015Y-67178305D02*
X158916642Y-67178305D01*
X157196514Y-67569243D02*
X158369329Y-67960181D01*
X158369329Y-66943742D01*
X145673524Y-73560938D02*
X144033304Y-73560938D01*
X145204890Y-73014198D01*
X144033304Y-72467458D01*
X145673524Y-72467458D01*
X145517312Y-70749132D02*
X145595418Y-70827238D01*
X145673524Y-71061555D01*
X145673524Y-71217767D01*
X145595418Y-71452084D01*
X145439207Y-71608295D01*
X145282995Y-71686401D01*
X144970572Y-71764507D01*
X144736255Y-71764507D01*
X144423832Y-71686401D01*
X144267621Y-71608295D01*
X144111410Y-71452084D01*
X144033304Y-71217767D01*
X144033304Y-71061555D01*
X144111410Y-70827238D01*
X144189515Y-70749132D01*
X145673524Y-70046181D02*
X144033304Y-70046181D01*
X144033304Y-69421335D01*
X144111410Y-69265124D01*
X144189515Y-69187018D01*
X144345727Y-69108912D01*
X144580044Y-69108912D01*
X144736255Y-69187018D01*
X144814361Y-69265124D01*
X144892467Y-69421335D01*
X144892467Y-70046181D01*
X144033304Y-68562172D02*
X144033304Y-67546798D01*
X144658150Y-68093538D01*
X144658150Y-67859221D01*
X144736255Y-67703010D01*
X144814361Y-67624904D01*
X144970572Y-67546798D01*
X145361101Y-67546798D01*
X145517312Y-67624904D01*
X145595418Y-67703010D01*
X145673524Y-67859221D01*
X145673524Y-68327855D01*
X145595418Y-68484067D01*
X145517312Y-68562172D01*
X144033304Y-66531424D02*
X144033304Y-66375212D01*
X144111410Y-66219001D01*
X144189515Y-66140895D01*
X144345727Y-66062790D01*
X144658150Y-65984684D01*
X145048678Y-65984684D01*
X145361101Y-66062790D01*
X145517312Y-66140895D01*
X145595418Y-66219001D01*
X145673524Y-66375212D01*
X145673524Y-66531424D01*
X145595418Y-66687635D01*
X145517312Y-66765741D01*
X145361101Y-66843847D01*
X145048678Y-66921952D01*
X144658150Y-66921952D01*
X144345727Y-66843847D01*
X144189515Y-66765741D01*
X144111410Y-66687635D01*
X144033304Y-66531424D01*
X144033304Y-64969310D02*
X144033304Y-64813098D01*
X144111410Y-64656887D01*
X144189515Y-64578781D01*
X144345727Y-64500675D01*
X144658150Y-64422570D01*
X145048678Y-64422570D01*
X145361101Y-64500675D01*
X145517312Y-64578781D01*
X145595418Y-64656887D01*
X145673524Y-64813098D01*
X145673524Y-64969310D01*
X145595418Y-65125521D01*
X145517312Y-65203627D01*
X145361101Y-65281732D01*
X145048678Y-65359838D01*
X144658150Y-65359838D01*
X144345727Y-65281732D01*
X144189515Y-65203627D01*
X144111410Y-65125521D01*
X144033304Y-64969310D01*
X144736255Y-63485301D02*
X144658150Y-63641512D01*
X144580044Y-63719618D01*
X144423832Y-63797724D01*
X144345727Y-63797724D01*
X144189515Y-63719618D01*
X144111410Y-63641512D01*
X144033304Y-63485301D01*
X144033304Y-63172878D01*
X144111410Y-63016667D01*
X144189515Y-62938561D01*
X144345727Y-62860455D01*
X144423832Y-62860455D01*
X144580044Y-62938561D01*
X144658150Y-63016667D01*
X144736255Y-63172878D01*
X144736255Y-63485301D01*
X144814361Y-63641512D01*
X144892467Y-63719618D01*
X145048678Y-63797724D01*
X145361101Y-63797724D01*
X145517312Y-63719618D01*
X145595418Y-63641512D01*
X145673524Y-63485301D01*
X145673524Y-63172878D01*
X145595418Y-63016667D01*
X145517312Y-62938561D01*
X145361101Y-62860455D01*
X145048678Y-62860455D01*
X144892467Y-62938561D01*
X144814361Y-63016667D01*
X144736255Y-63172878D01*
X138986702Y-69602121D02*
X140315891Y-69602121D01*
X140472267Y-69523934D01*
X140550454Y-69445746D01*
X140628642Y-69289371D01*
X140628642Y-68976620D01*
X140550454Y-68820245D01*
X140472267Y-68742058D01*
X140315891Y-68663870D01*
X138986702Y-68663870D01*
X138986702Y-68038369D02*
X138986702Y-67021930D01*
X139612203Y-67569243D01*
X139612203Y-67334680D01*
X139690390Y-67178305D01*
X139768578Y-67100118D01*
X139924953Y-67021930D01*
X140315891Y-67021930D01*
X140472267Y-67100118D01*
X140550454Y-67178305D01*
X140628642Y-67334680D01*
X140628642Y-67803806D01*
X140550454Y-67960181D01*
X140472267Y-68038369D01*
X127385524Y-73560938D02*
X125745304Y-73560938D01*
X126916890Y-73014198D01*
X125745304Y-72467458D01*
X127385524Y-72467458D01*
X127229312Y-70749132D02*
X127307418Y-70827238D01*
X127385524Y-71061555D01*
X127385524Y-71217767D01*
X127307418Y-71452084D01*
X127151207Y-71608295D01*
X126994995Y-71686401D01*
X126682572Y-71764507D01*
X126448255Y-71764507D01*
X126135832Y-71686401D01*
X125979621Y-71608295D01*
X125823410Y-71452084D01*
X125745304Y-71217767D01*
X125745304Y-71061555D01*
X125823410Y-70827238D01*
X125901515Y-70749132D01*
X127385524Y-70046181D02*
X125745304Y-70046181D01*
X125745304Y-69421335D01*
X125823410Y-69265124D01*
X125901515Y-69187018D01*
X126057727Y-69108912D01*
X126292044Y-69108912D01*
X126448255Y-69187018D01*
X126526361Y-69265124D01*
X126604467Y-69421335D01*
X126604467Y-70046181D01*
X125745304Y-68562172D02*
X125745304Y-67546798D01*
X126370150Y-68093538D01*
X126370150Y-67859221D01*
X126448255Y-67703010D01*
X126526361Y-67624904D01*
X126682572Y-67546798D01*
X127073101Y-67546798D01*
X127229312Y-67624904D01*
X127307418Y-67703010D01*
X127385524Y-67859221D01*
X127385524Y-68327855D01*
X127307418Y-68484067D01*
X127229312Y-68562172D01*
X125745304Y-66531424D02*
X125745304Y-66375212D01*
X125823410Y-66219001D01*
X125901515Y-66140895D01*
X126057727Y-66062790D01*
X126370150Y-65984684D01*
X126760678Y-65984684D01*
X127073101Y-66062790D01*
X127229312Y-66140895D01*
X127307418Y-66219001D01*
X127385524Y-66375212D01*
X127385524Y-66531424D01*
X127307418Y-66687635D01*
X127229312Y-66765741D01*
X127073101Y-66843847D01*
X126760678Y-66921952D01*
X126370150Y-66921952D01*
X126057727Y-66843847D01*
X125901515Y-66765741D01*
X125823410Y-66687635D01*
X125745304Y-66531424D01*
X125745304Y-64969310D02*
X125745304Y-64813098D01*
X125823410Y-64656887D01*
X125901515Y-64578781D01*
X126057727Y-64500675D01*
X126370150Y-64422570D01*
X126760678Y-64422570D01*
X127073101Y-64500675D01*
X127229312Y-64578781D01*
X127307418Y-64656887D01*
X127385524Y-64813098D01*
X127385524Y-64969310D01*
X127307418Y-65125521D01*
X127229312Y-65203627D01*
X127073101Y-65281732D01*
X126760678Y-65359838D01*
X126370150Y-65359838D01*
X126057727Y-65281732D01*
X125901515Y-65203627D01*
X125823410Y-65125521D01*
X125745304Y-64969310D01*
X126448255Y-63485301D02*
X126370150Y-63641512D01*
X126292044Y-63719618D01*
X126135832Y-63797724D01*
X126057727Y-63797724D01*
X125901515Y-63719618D01*
X125823410Y-63641512D01*
X125745304Y-63485301D01*
X125745304Y-63172878D01*
X125823410Y-63016667D01*
X125901515Y-62938561D01*
X126057727Y-62860455D01*
X126135832Y-62860455D01*
X126292044Y-62938561D01*
X126370150Y-63016667D01*
X126448255Y-63172878D01*
X126448255Y-63485301D01*
X126526361Y-63641512D01*
X126604467Y-63719618D01*
X126760678Y-63797724D01*
X127073101Y-63797724D01*
X127229312Y-63719618D01*
X127307418Y-63641512D01*
X127385524Y-63485301D01*
X127385524Y-63172878D01*
X127307418Y-63016667D01*
X127229312Y-62938561D01*
X127073101Y-62860455D01*
X126760678Y-62860455D01*
X126604467Y-62938561D01*
X126526361Y-63016667D01*
X126448255Y-63172878D01*
X130346118Y-76892982D02*
X130346118Y-78222171D01*
X130424305Y-78378547D01*
X130502493Y-78456734D01*
X130658868Y-78534922D01*
X130971619Y-78534922D01*
X131127994Y-78456734D01*
X131206181Y-78378547D01*
X131284369Y-78222171D01*
X131284369Y-76892982D01*
X131988058Y-77049357D02*
X132066245Y-76971170D01*
X132222620Y-76892982D01*
X132613559Y-76892982D01*
X132769934Y-76971170D01*
X132848121Y-77049357D01*
X132926309Y-77205732D01*
X132926309Y-77362108D01*
X132848121Y-77596670D01*
X131909870Y-78534922D01*
X132926309Y-78534922D01*
X126184561Y-91776484D02*
X126184561Y-90136264D01*
X126731301Y-91307850D01*
X127278041Y-90136264D01*
X127278041Y-91776484D01*
X128996367Y-91620272D02*
X128918261Y-91698378D01*
X128683944Y-91776484D01*
X128527732Y-91776484D01*
X128293415Y-91698378D01*
X128137204Y-91542167D01*
X128059098Y-91385955D01*
X127980992Y-91073532D01*
X127980992Y-90839215D01*
X128059098Y-90526792D01*
X128137204Y-90370581D01*
X128293415Y-90214370D01*
X128527732Y-90136264D01*
X128683944Y-90136264D01*
X128918261Y-90214370D01*
X128996367Y-90292475D01*
X129699318Y-91776484D02*
X129699318Y-90136264D01*
X130324164Y-90136264D01*
X130480375Y-90214370D01*
X130558481Y-90292475D01*
X130636587Y-90448687D01*
X130636587Y-90683004D01*
X130558481Y-90839215D01*
X130480375Y-90917321D01*
X130324164Y-90995427D01*
X129699318Y-90995427D01*
X131183327Y-90136264D02*
X132198701Y-90136264D01*
X131651961Y-90761110D01*
X131886278Y-90761110D01*
X132042490Y-90839215D01*
X132120595Y-90917321D01*
X132198701Y-91073532D01*
X132198701Y-91464061D01*
X132120595Y-91620272D01*
X132042490Y-91698378D01*
X131886278Y-91776484D01*
X131417644Y-91776484D01*
X131261432Y-91698378D01*
X131183327Y-91620272D01*
X133214075Y-90136264D02*
X133370287Y-90136264D01*
X133526498Y-90214370D01*
X133604604Y-90292475D01*
X133682710Y-90448687D01*
X133760815Y-90761110D01*
X133760815Y-91151638D01*
X133682710Y-91464061D01*
X133604604Y-91620272D01*
X133526498Y-91698378D01*
X133370287Y-91776484D01*
X133214075Y-91776484D01*
X133057864Y-91698378D01*
X132979758Y-91620272D01*
X132901652Y-91464061D01*
X132823547Y-91151638D01*
X132823547Y-90761110D01*
X132901652Y-90448687D01*
X132979758Y-90292475D01*
X133057864Y-90214370D01*
X133214075Y-90136264D01*
X134776190Y-90136264D02*
X134932401Y-90136264D01*
X135088612Y-90214370D01*
X135166718Y-90292475D01*
X135244824Y-90448687D01*
X135322930Y-90761110D01*
X135322930Y-91151638D01*
X135244824Y-91464061D01*
X135166718Y-91620272D01*
X135088612Y-91698378D01*
X134932401Y-91776484D01*
X134776190Y-91776484D01*
X134619978Y-91698378D01*
X134541872Y-91620272D01*
X134463767Y-91464061D01*
X134385661Y-91151638D01*
X134385661Y-90761110D01*
X134463767Y-90448687D01*
X134541872Y-90292475D01*
X134619978Y-90214370D01*
X134776190Y-90136264D01*
X136260198Y-90839215D02*
X136103987Y-90761110D01*
X136025881Y-90683004D01*
X135947775Y-90526792D01*
X135947775Y-90448687D01*
X136025881Y-90292475D01*
X136103987Y-90214370D01*
X136260198Y-90136264D01*
X136572621Y-90136264D01*
X136728832Y-90214370D01*
X136806938Y-90292475D01*
X136885044Y-90448687D01*
X136885044Y-90526792D01*
X136806938Y-90683004D01*
X136728832Y-90761110D01*
X136572621Y-90839215D01*
X136260198Y-90839215D01*
X136103987Y-90917321D01*
X136025881Y-90995427D01*
X135947775Y-91151638D01*
X135947775Y-91464061D01*
X136025881Y-91620272D01*
X136103987Y-91698378D01*
X136260198Y-91776484D01*
X136572621Y-91776484D01*
X136728832Y-91698378D01*
X136806938Y-91620272D01*
X136885044Y-91464061D01*
X136885044Y-91151638D01*
X136806938Y-90995427D01*
X136728832Y-90917321D01*
X136572621Y-90839215D01*
X130346118Y-97212982D02*
X130346118Y-98542171D01*
X130424305Y-98698547D01*
X130502493Y-98776734D01*
X130658868Y-98854922D01*
X130971619Y-98854922D01*
X131127994Y-98776734D01*
X131206181Y-98698547D01*
X131284369Y-98542171D01*
X131284369Y-97212982D01*
X132926309Y-98854922D02*
X131988058Y-98854922D01*
X132457183Y-98854922D02*
X132457183Y-97212982D01*
X132300808Y-97447545D01*
X132144433Y-97603920D01*
X131988058Y-97682108D01*
X126184561Y-112096484D02*
X126184561Y-110456264D01*
X126731301Y-111627850D01*
X127278041Y-110456264D01*
X127278041Y-112096484D01*
X128996367Y-111940272D02*
X128918261Y-112018378D01*
X128683944Y-112096484D01*
X128527732Y-112096484D01*
X128293415Y-112018378D01*
X128137204Y-111862167D01*
X128059098Y-111705955D01*
X127980992Y-111393532D01*
X127980992Y-111159215D01*
X128059098Y-110846792D01*
X128137204Y-110690581D01*
X128293415Y-110534370D01*
X128527732Y-110456264D01*
X128683944Y-110456264D01*
X128918261Y-110534370D01*
X128996367Y-110612475D01*
X129699318Y-112096484D02*
X129699318Y-110456264D01*
X130324164Y-110456264D01*
X130480375Y-110534370D01*
X130558481Y-110612475D01*
X130636587Y-110768687D01*
X130636587Y-111003004D01*
X130558481Y-111159215D01*
X130480375Y-111237321D01*
X130324164Y-111315427D01*
X129699318Y-111315427D01*
X131183327Y-110456264D02*
X132198701Y-110456264D01*
X131651961Y-111081110D01*
X131886278Y-111081110D01*
X132042490Y-111159215D01*
X132120595Y-111237321D01*
X132198701Y-111393532D01*
X132198701Y-111784061D01*
X132120595Y-111940272D01*
X132042490Y-112018378D01*
X131886278Y-112096484D01*
X131417644Y-112096484D01*
X131261432Y-112018378D01*
X131183327Y-111940272D01*
X133214075Y-110456264D02*
X133370287Y-110456264D01*
X133526498Y-110534370D01*
X133604604Y-110612475D01*
X133682710Y-110768687D01*
X133760815Y-111081110D01*
X133760815Y-111471638D01*
X133682710Y-111784061D01*
X133604604Y-111940272D01*
X133526498Y-112018378D01*
X133370287Y-112096484D01*
X133214075Y-112096484D01*
X133057864Y-112018378D01*
X132979758Y-111940272D01*
X132901652Y-111784061D01*
X132823547Y-111471638D01*
X132823547Y-111081110D01*
X132901652Y-110768687D01*
X132979758Y-110612475D01*
X133057864Y-110534370D01*
X133214075Y-110456264D01*
X134776190Y-110456264D02*
X134932401Y-110456264D01*
X135088612Y-110534370D01*
X135166718Y-110612475D01*
X135244824Y-110768687D01*
X135322930Y-111081110D01*
X135322930Y-111471638D01*
X135244824Y-111784061D01*
X135166718Y-111940272D01*
X135088612Y-112018378D01*
X134932401Y-112096484D01*
X134776190Y-112096484D01*
X134619978Y-112018378D01*
X134541872Y-111940272D01*
X134463767Y-111784061D01*
X134385661Y-111471638D01*
X134385661Y-111081110D01*
X134463767Y-110768687D01*
X134541872Y-110612475D01*
X134619978Y-110534370D01*
X134776190Y-110456264D01*
X136260198Y-111159215D02*
X136103987Y-111081110D01*
X136025881Y-111003004D01*
X135947775Y-110846792D01*
X135947775Y-110768687D01*
X136025881Y-110612475D01*
X136103987Y-110534370D01*
X136260198Y-110456264D01*
X136572621Y-110456264D01*
X136728832Y-110534370D01*
X136806938Y-110612475D01*
X136885044Y-110768687D01*
X136885044Y-110846792D01*
X136806938Y-111003004D01*
X136728832Y-111081110D01*
X136572621Y-111159215D01*
X136260198Y-111159215D01*
X136103987Y-111237321D01*
X136025881Y-111315427D01*
X135947775Y-111471638D01*
X135947775Y-111784061D01*
X136025881Y-111940272D01*
X136103987Y-112018378D01*
X136260198Y-112096484D01*
X136572621Y-112096484D01*
X136728832Y-112018378D01*
X136806938Y-111940272D01*
X136885044Y-111784061D01*
X136885044Y-111471638D01*
X136806938Y-111315427D01*
X136728832Y-111237321D01*
X136572621Y-111159215D01*
D15*
X119047380Y-113604523D02*
X119047380Y-114632619D01*
X119107857Y-114753571D01*
X119168333Y-114814047D01*
X119289285Y-114874523D01*
X119531190Y-114874523D01*
X119652142Y-114814047D01*
X119712619Y-114753571D01*
X119773095Y-114632619D01*
X119773095Y-113604523D01*
X120619761Y-113604523D02*
X120740714Y-113604523D01*
X120861666Y-113665000D01*
X120922142Y-113725476D01*
X120982619Y-113846428D01*
X121043095Y-114088333D01*
X121043095Y-114390714D01*
X120982619Y-114632619D01*
X120922142Y-114753571D01*
X120861666Y-114814047D01*
X120740714Y-114874523D01*
X120619761Y-114874523D01*
X120498809Y-114814047D01*
X120438333Y-114753571D01*
X120377857Y-114632619D01*
X120317380Y-114390714D01*
X120317380Y-114088333D01*
X120377857Y-113846428D01*
X120438333Y-113725476D01*
X120498809Y-113665000D01*
X120619761Y-113604523D01*
D16*
X113392857Y-122494523D02*
X112969523Y-121889761D01*
X112667142Y-122494523D02*
X112667142Y-121224523D01*
X113150952Y-121224523D01*
X113271904Y-121285000D01*
X113332380Y-121345476D01*
X113392857Y-121466428D01*
X113392857Y-121647857D01*
X113332380Y-121768809D01*
X113271904Y-121829285D01*
X113150952Y-121889761D01*
X112667142Y-121889761D01*
X114481428Y-122494523D02*
X114481428Y-121829285D01*
X114420952Y-121708333D01*
X114300000Y-121647857D01*
X114058095Y-121647857D01*
X113937142Y-121708333D01*
X114481428Y-122434047D02*
X114360476Y-122494523D01*
X114058095Y-122494523D01*
X113937142Y-122434047D01*
X113876666Y-122313095D01*
X113876666Y-122192142D01*
X113937142Y-122071190D01*
X114058095Y-122010714D01*
X114360476Y-122010714D01*
X114481428Y-121950238D01*
X115025714Y-122434047D02*
X115146666Y-122494523D01*
X115388571Y-122494523D01*
X115509523Y-122434047D01*
X115570000Y-122313095D01*
X115570000Y-122252619D01*
X115509523Y-122131666D01*
X115388571Y-122071190D01*
X115207142Y-122071190D01*
X115086190Y-122010714D01*
X115025714Y-121889761D01*
X115025714Y-121829285D01*
X115086190Y-121708333D01*
X115207142Y-121647857D01*
X115388571Y-121647857D01*
X115509523Y-121708333D01*
X116114285Y-121647857D02*
X116114285Y-122917857D01*
X116114285Y-121708333D02*
X116235238Y-121647857D01*
X116477142Y-121647857D01*
X116598095Y-121708333D01*
X116658571Y-121768809D01*
X116719047Y-121889761D01*
X116719047Y-122252619D01*
X116658571Y-122373571D01*
X116598095Y-122434047D01*
X116477142Y-122494523D01*
X116235238Y-122494523D01*
X116114285Y-122434047D01*
X117263333Y-122494523D02*
X117263333Y-121224523D01*
X117263333Y-121708333D02*
X117384285Y-121647857D01*
X117626190Y-121647857D01*
X117747142Y-121708333D01*
X117807619Y-121768809D01*
X117868095Y-121889761D01*
X117868095Y-122252619D01*
X117807619Y-122373571D01*
X117747142Y-122434047D01*
X117626190Y-122494523D01*
X117384285Y-122494523D01*
X117263333Y-122434047D01*
X118896190Y-122434047D02*
X118775238Y-122494523D01*
X118533333Y-122494523D01*
X118412380Y-122434047D01*
X118351904Y-122313095D01*
X118351904Y-121829285D01*
X118412380Y-121708333D01*
X118533333Y-121647857D01*
X118775238Y-121647857D01*
X118896190Y-121708333D01*
X118956666Y-121829285D01*
X118956666Y-121950238D01*
X118351904Y-122071190D01*
X119500952Y-122494523D02*
X119500952Y-121647857D01*
X119500952Y-121889761D02*
X119561428Y-121768809D01*
X119621904Y-121708333D01*
X119742857Y-121647857D01*
X119863809Y-121647857D01*
X120287142Y-122494523D02*
X120287142Y-121647857D01*
X120287142Y-121889761D02*
X120347619Y-121768809D01*
X120408095Y-121708333D01*
X120529047Y-121647857D01*
X120650000Y-121647857D01*
X120952380Y-121647857D02*
X121254761Y-122494523D01*
X121557142Y-121647857D02*
X121254761Y-122494523D01*
X121133809Y-122796904D01*
X121073333Y-122857380D01*
X120952380Y-122917857D01*
X121738571Y-122615476D02*
X122706190Y-122615476D01*
X123008571Y-122494523D02*
X123008571Y-121224523D01*
X123492380Y-121224523D01*
X123613333Y-121285000D01*
X123673809Y-121345476D01*
X123734285Y-121466428D01*
X123734285Y-121647857D01*
X123673809Y-121768809D01*
X123613333Y-121829285D01*
X123492380Y-121889761D01*
X123008571Y-121889761D01*
X124278571Y-122494523D02*
X124278571Y-121647857D01*
X124278571Y-121224523D02*
X124218095Y-121285000D01*
X124278571Y-121345476D01*
X124339047Y-121285000D01*
X124278571Y-121224523D01*
X124278571Y-121345476D01*
X124580952Y-122615476D02*
X125548571Y-122615476D01*
X125790476Y-121345476D02*
X125850952Y-121285000D01*
X125971904Y-121224523D01*
X126274285Y-121224523D01*
X126395238Y-121285000D01*
X126455714Y-121345476D01*
X126516190Y-121466428D01*
X126516190Y-121587380D01*
X126455714Y-121768809D01*
X125730000Y-122494523D01*
X126516190Y-122494523D01*
X126758095Y-122615476D02*
X127725714Y-122615476D01*
X127907142Y-121224523D02*
X128693333Y-121224523D01*
X128270000Y-121708333D01*
X128451428Y-121708333D01*
X128572380Y-121768809D01*
X128632857Y-121829285D01*
X128693333Y-121950238D01*
X128693333Y-122252619D01*
X128632857Y-122373571D01*
X128572380Y-122434047D01*
X128451428Y-122494523D01*
X128088571Y-122494523D01*
X127967619Y-122434047D01*
X127907142Y-122373571D01*
D13*
X140412380Y-64682666D02*
X139936190Y-65016000D01*
X140412380Y-65254095D02*
X139412380Y-65254095D01*
X139412380Y-64873142D01*
X139460000Y-64777904D01*
X139507619Y-64730285D01*
X139602857Y-64682666D01*
X139745714Y-64682666D01*
X139840952Y-64730285D01*
X139888571Y-64777904D01*
X139936190Y-64873142D01*
X139936190Y-65254095D01*
X139840952Y-64111238D02*
X139793333Y-64206476D01*
X139745714Y-64254095D01*
X139650476Y-64301714D01*
X139602857Y-64301714D01*
X139507619Y-64254095D01*
X139460000Y-64206476D01*
X139412380Y-64111238D01*
X139412380Y-63920761D01*
X139460000Y-63825523D01*
X139507619Y-63777904D01*
X139602857Y-63730285D01*
X139650476Y-63730285D01*
X139745714Y-63777904D01*
X139793333Y-63825523D01*
X139840952Y-63920761D01*
X139840952Y-64111238D01*
X139888571Y-64206476D01*
X139936190Y-64254095D01*
X140031428Y-64301714D01*
X140221904Y-64301714D01*
X140317142Y-64254095D01*
X140364761Y-64206476D01*
X140412380Y-64111238D01*
X140412380Y-63920761D01*
X140364761Y-63825523D01*
X140317142Y-63777904D01*
X140221904Y-63730285D01*
X140031428Y-63730285D01*
X139936190Y-63777904D01*
X139888571Y-63825523D01*
X139840952Y-63920761D01*
X140412380Y-71286666D02*
X139936190Y-71620000D01*
X140412380Y-71858095D02*
X139412380Y-71858095D01*
X139412380Y-71477142D01*
X139460000Y-71381904D01*
X139507619Y-71334285D01*
X139602857Y-71286666D01*
X139745714Y-71286666D01*
X139840952Y-71334285D01*
X139888571Y-71381904D01*
X139936190Y-71477142D01*
X139936190Y-71858095D01*
X139412380Y-70953333D02*
X139412380Y-70286666D01*
X140412380Y-70715238D01*
X140412380Y-77890666D02*
X139936190Y-78224000D01*
X140412380Y-78462095D02*
X139412380Y-78462095D01*
X139412380Y-78081142D01*
X139460000Y-77985904D01*
X139507619Y-77938285D01*
X139602857Y-77890666D01*
X139745714Y-77890666D01*
X139840952Y-77938285D01*
X139888571Y-77985904D01*
X139936190Y-78081142D01*
X139936190Y-78462095D01*
X139412380Y-77033523D02*
X139412380Y-77224000D01*
X139460000Y-77319238D01*
X139507619Y-77366857D01*
X139650476Y-77462095D01*
X139840952Y-77509714D01*
X140221904Y-77509714D01*
X140317142Y-77462095D01*
X140364761Y-77414476D01*
X140412380Y-77319238D01*
X140412380Y-77128761D01*
X140364761Y-77033523D01*
X140317142Y-76985904D01*
X140221904Y-76938285D01*
X139983809Y-76938285D01*
X139888571Y-76985904D01*
X139840952Y-77033523D01*
X139793333Y-77128761D01*
X139793333Y-77319238D01*
X139840952Y-77414476D01*
X139888571Y-77462095D01*
X139983809Y-77509714D01*
X140412380Y-84494666D02*
X139936190Y-84828000D01*
X140412380Y-85066095D02*
X139412380Y-85066095D01*
X139412380Y-84685142D01*
X139460000Y-84589904D01*
X139507619Y-84542285D01*
X139602857Y-84494666D01*
X139745714Y-84494666D01*
X139840952Y-84542285D01*
X139888571Y-84589904D01*
X139936190Y-84685142D01*
X139936190Y-85066095D01*
X139412380Y-83589904D02*
X139412380Y-84066095D01*
X139888571Y-84113714D01*
X139840952Y-84066095D01*
X139793333Y-83970857D01*
X139793333Y-83732761D01*
X139840952Y-83637523D01*
X139888571Y-83589904D01*
X139983809Y-83542285D01*
X140221904Y-83542285D01*
X140317142Y-83589904D01*
X140364761Y-83637523D01*
X140412380Y-83732761D01*
X140412380Y-83970857D01*
X140364761Y-84066095D01*
X140317142Y-84113714D01*
X140412380Y-91098666D02*
X139936190Y-91432000D01*
X140412380Y-91670095D02*
X139412380Y-91670095D01*
X139412380Y-91289142D01*
X139460000Y-91193904D01*
X139507619Y-91146285D01*
X139602857Y-91098666D01*
X139745714Y-91098666D01*
X139840952Y-91146285D01*
X139888571Y-91193904D01*
X139936190Y-91289142D01*
X139936190Y-91670095D01*
X139745714Y-90241523D02*
X140412380Y-90241523D01*
X139364761Y-90479619D02*
X140079047Y-90717714D01*
X140079047Y-90098666D01*
X140412380Y-97702666D02*
X139936190Y-98036000D01*
X140412380Y-98274095D02*
X139412380Y-98274095D01*
X139412380Y-97893142D01*
X139460000Y-97797904D01*
X139507619Y-97750285D01*
X139602857Y-97702666D01*
X139745714Y-97702666D01*
X139840952Y-97750285D01*
X139888571Y-97797904D01*
X139936190Y-97893142D01*
X139936190Y-98274095D01*
X139412380Y-97369333D02*
X139412380Y-96750285D01*
X139793333Y-97083619D01*
X139793333Y-96940761D01*
X139840952Y-96845523D01*
X139888571Y-96797904D01*
X139983809Y-96750285D01*
X140221904Y-96750285D01*
X140317142Y-96797904D01*
X140364761Y-96845523D01*
X140412380Y-96940761D01*
X140412380Y-97226476D01*
X140364761Y-97321714D01*
X140317142Y-97369333D01*
X144972380Y-104306666D02*
X144496190Y-104640000D01*
X144972380Y-104878095D02*
X143972380Y-104878095D01*
X143972380Y-104497142D01*
X144020000Y-104401904D01*
X144067619Y-104354285D01*
X144162857Y-104306666D01*
X144305714Y-104306666D01*
X144400952Y-104354285D01*
X144448571Y-104401904D01*
X144496190Y-104497142D01*
X144496190Y-104878095D01*
X144067619Y-103925714D02*
X144020000Y-103878095D01*
X143972380Y-103782857D01*
X143972380Y-103544761D01*
X144020000Y-103449523D01*
X144067619Y-103401904D01*
X144162857Y-103354285D01*
X144258095Y-103354285D01*
X144400952Y-103401904D01*
X144972380Y-103973333D01*
X144972380Y-103354285D01*
X140412380Y-110786666D02*
X139936190Y-111120000D01*
X140412380Y-111358095D02*
X139412380Y-111358095D01*
X139412380Y-110977142D01*
X139460000Y-110881904D01*
X139507619Y-110834285D01*
X139602857Y-110786666D01*
X139745714Y-110786666D01*
X139840952Y-110834285D01*
X139888571Y-110881904D01*
X139936190Y-110977142D01*
X139936190Y-111358095D01*
X140412380Y-109834285D02*
X140412380Y-110405714D01*
X140412380Y-110120000D02*
X139412380Y-110120000D01*
X139555238Y-110215238D01*
X139650476Y-110310476D01*
X139698095Y-110405714D01*
X170446380Y-69675333D02*
X171160666Y-69675333D01*
X171303523Y-69722952D01*
X171398761Y-69818190D01*
X171446380Y-69961047D01*
X171446380Y-70056285D01*
X170446380Y-68722952D02*
X170446380Y-69199142D01*
X170922571Y-69246761D01*
X170874952Y-69199142D01*
X170827333Y-69103904D01*
X170827333Y-68865809D01*
X170874952Y-68770571D01*
X170922571Y-68722952D01*
X171017809Y-68675333D01*
X171255904Y-68675333D01*
X171351142Y-68722952D01*
X171398761Y-68770571D01*
X171446380Y-68865809D01*
X171446380Y-69103904D01*
X171398761Y-69199142D01*
X171351142Y-69246761D01*
X156638666Y-44358380D02*
X156638666Y-45072666D01*
X156591047Y-45215523D01*
X156495809Y-45310761D01*
X156352952Y-45358380D01*
X156257714Y-45358380D01*
X157543428Y-44691714D02*
X157543428Y-45358380D01*
X157305333Y-44310761D02*
X157067238Y-45025047D01*
X157686285Y-45025047D01*
X127174666Y-44358380D02*
X127174666Y-45072666D01*
X127127047Y-45215523D01*
X127031809Y-45310761D01*
X126888952Y-45358380D01*
X126793714Y-45358380D01*
X127555619Y-44358380D02*
X128174666Y-44358380D01*
X127841333Y-44739333D01*
X127984190Y-44739333D01*
X128079428Y-44786952D01*
X128127047Y-44834571D01*
X128174666Y-44929809D01*
X128174666Y-45167904D01*
X128127047Y-45263142D01*
X128079428Y-45310761D01*
X127984190Y-45358380D01*
X127698476Y-45358380D01*
X127603238Y-45310761D01*
X127555619Y-45263142D01*
X112938380Y-69675333D02*
X113652666Y-69675333D01*
X113795523Y-69722952D01*
X113890761Y-69818190D01*
X113938380Y-69961047D01*
X113938380Y-70056285D01*
X113033619Y-69246761D02*
X112986000Y-69199142D01*
X112938380Y-69103904D01*
X112938380Y-68865809D01*
X112986000Y-68770571D01*
X113033619Y-68722952D01*
X113128857Y-68675333D01*
X113224095Y-68675333D01*
X113366952Y-68722952D01*
X113938380Y-69294380D01*
X113938380Y-68675333D01*
X112938380Y-99139333D02*
X113652666Y-99139333D01*
X113795523Y-99186952D01*
X113890761Y-99282190D01*
X113938380Y-99425047D01*
X113938380Y-99520285D01*
X113938380Y-98139333D02*
X113938380Y-98710761D01*
X113938380Y-98425047D02*
X112938380Y-98425047D01*
X113081238Y-98520285D01*
X113176476Y-98615523D01*
X113224095Y-98710761D01*
M02*
