G04 #@! TF.GenerationSoftware,KiCad,Pcbnew,(5.1.2-1)-1*
G04 #@! TF.CreationDate,2019-07-02T18:03:37-05:00*
G04 #@! TF.ProjectId,multiSPI,6d756c74-6953-4504-992e-6b696361645f,rev?*
G04 #@! TF.SameCoordinates,Original*
G04 #@! TF.FileFunction,Paste,Bot*
G04 #@! TF.FilePolarity,Positive*
%FSLAX46Y46*%
G04 Gerber Fmt 4.6, Leading zero omitted, Abs format (unit mm)*
G04 Created by KiCad (PCBNEW (5.1.2-1)-1) date 2019-07-02 18:03:37*
%MOMM*%
%LPD*%
G04 APERTURE LIST*
%ADD10C,1.524000*%
G04 APERTURE END LIST*
D10*
X166370000Y-116840000D03*
X166370000Y-119380000D03*
X163830000Y-116840000D03*
X163830000Y-119380000D03*
X161290000Y-116840000D03*
X161290000Y-119380000D03*
X158750000Y-116840000D03*
X158750000Y-119380000D03*
X156210000Y-116840000D03*
X156210000Y-119380000D03*
X153670000Y-116840000D03*
X153670000Y-119380000D03*
X151130000Y-116840000D03*
X151130000Y-119380000D03*
X148590000Y-116840000D03*
X148590000Y-119380000D03*
X146050000Y-116840000D03*
X146050000Y-119380000D03*
X143510000Y-116840000D03*
X143510000Y-119380000D03*
X140970000Y-116840000D03*
X140970000Y-119380000D03*
X138430000Y-116840000D03*
X138430000Y-119380000D03*
X135890000Y-116840000D03*
X135890000Y-119380000D03*
X133350000Y-116840000D03*
X133350000Y-119380000D03*
X130810000Y-116840000D03*
X130810000Y-119380000D03*
X128270000Y-116840000D03*
X128270000Y-119380000D03*
X125730000Y-116840000D03*
X125730000Y-119380000D03*
X123190000Y-116840000D03*
X123190000Y-119380000D03*
X120650000Y-116840000D03*
X120650000Y-119380000D03*
X118110000Y-116840000D03*
X118110000Y-119380000D03*
M02*
