G04 #@! TF.GenerationSoftware,KiCad,Pcbnew,(5.1.2-1)-1*
G04 #@! TF.CreationDate,2019-07-02T18:03:37-05:00*
G04 #@! TF.ProjectId,multiSPI,6d756c74-6953-4504-992e-6b696361645f,rev?*
G04 #@! TF.SameCoordinates,Original*
G04 #@! TF.FileFunction,Copper,L2,Bot*
G04 #@! TF.FilePolarity,Positive*
%FSLAX46Y46*%
G04 Gerber Fmt 4.6, Leading zero omitted, Abs format (unit mm)*
G04 Created by KiCad (PCBNEW (5.1.2-1)-1) date 2019-07-02 18:03:37*
%MOMM*%
%LPD*%
G04 APERTURE LIST*
%ADD10C,0.750000*%
%ADD11C,2.100000*%
%ADD12R,2.100000X2.100000*%
%ADD13C,1.524000*%
%ADD14C,0.800000*%
%ADD15C,0.250000*%
G04 APERTURE END LIST*
D10*
X113030000Y-121666000D03*
X171196000Y-121666000D03*
X171196000Y-44450000D03*
X113030000Y-44450000D03*
D11*
X166624000Y-110490000D03*
X166624000Y-107950000D03*
X166624000Y-105410000D03*
X166624000Y-102870000D03*
X166624000Y-100330000D03*
X166624000Y-97790000D03*
X166624000Y-95250000D03*
X166624000Y-92710000D03*
X166624000Y-90170000D03*
D12*
X166624000Y-87630000D03*
D13*
X166370000Y-116840000D03*
X166370000Y-119380000D03*
X163830000Y-116840000D03*
X163830000Y-119380000D03*
X161290000Y-116840000D03*
X161290000Y-119380000D03*
X158750000Y-116840000D03*
X158750000Y-119380000D03*
X156210000Y-116840000D03*
X156210000Y-119380000D03*
X153670000Y-116840000D03*
X153670000Y-119380000D03*
X151130000Y-116840000D03*
X151130000Y-119380000D03*
X148590000Y-116840000D03*
X148590000Y-119380000D03*
X146050000Y-116840000D03*
X146050000Y-119380000D03*
X143510000Y-116840000D03*
X143510000Y-119380000D03*
X140970000Y-116840000D03*
X140970000Y-119380000D03*
X138430000Y-116840000D03*
X138430000Y-119380000D03*
X135890000Y-116840000D03*
X135890000Y-119380000D03*
X133350000Y-116840000D03*
X133350000Y-119380000D03*
X130810000Y-116840000D03*
X130810000Y-119380000D03*
X128270000Y-116840000D03*
X128270000Y-119380000D03*
X125730000Y-116840000D03*
X125730000Y-119380000D03*
X123190000Y-116840000D03*
X123190000Y-119380000D03*
X120650000Y-116840000D03*
X120650000Y-119380000D03*
X118110000Y-116840000D03*
X118110000Y-119380000D03*
D11*
X166624000Y-80772000D03*
X166624000Y-78232000D03*
X166624000Y-75692000D03*
X166624000Y-73152000D03*
X166624000Y-70612000D03*
X166624000Y-68072000D03*
X166624000Y-65532000D03*
X166624000Y-62992000D03*
X166624000Y-60452000D03*
D12*
X166624000Y-57912000D03*
D11*
X168402000Y-49276000D03*
X165862000Y-49276000D03*
X163322000Y-49276000D03*
X160782000Y-49276000D03*
X158242000Y-49276000D03*
X155702000Y-49276000D03*
X153162000Y-49276000D03*
X150622000Y-49276000D03*
X148082000Y-49276000D03*
D12*
X145542000Y-49276000D03*
D11*
X138938000Y-49276000D03*
X136398000Y-49276000D03*
X133858000Y-49276000D03*
X131318000Y-49276000D03*
X128778000Y-49276000D03*
X126238000Y-49276000D03*
X123698000Y-49276000D03*
X121158000Y-49276000D03*
X118618000Y-49276000D03*
D12*
X116078000Y-49276000D03*
D11*
X117856000Y-57912000D03*
X117856000Y-60452000D03*
X117856000Y-62992000D03*
X117856000Y-65532000D03*
X117856000Y-68072000D03*
X117856000Y-70612000D03*
X117856000Y-73152000D03*
X117856000Y-75692000D03*
X117856000Y-78232000D03*
D12*
X117856000Y-80772000D03*
D11*
X117856000Y-87376000D03*
X117856000Y-89916000D03*
X117856000Y-92456000D03*
X117856000Y-94996000D03*
X117856000Y-97536000D03*
X117856000Y-100076000D03*
X117856000Y-102616000D03*
X117856000Y-105156000D03*
X117856000Y-107696000D03*
D12*
X117856000Y-110236000D03*
D14*
X156669200Y-104394000D03*
X164061800Y-69573600D03*
X151773700Y-83836600D03*
X142240000Y-64672300D03*
X148506600Y-88243100D03*
X164600500Y-61174200D03*
X158953400Y-76169400D03*
X144609400Y-77639000D03*
X156827800Y-78689500D03*
X144092300Y-84137000D03*
X135782800Y-86544300D03*
X135782300Y-106924900D03*
X152943500Y-102972900D03*
X131296200Y-79769500D03*
X144396800Y-86364600D03*
X135960700Y-75319300D03*
X151958800Y-69324000D03*
X133757500Y-73313200D03*
X137790900Y-72547000D03*
X138115200Y-100970000D03*
X135789800Y-105414900D03*
X132511700Y-72547000D03*
X156928900Y-105856700D03*
X151788700Y-107723000D03*
X144190700Y-112687500D03*
X153264500Y-81658900D03*
X137079500Y-89735000D03*
X145606900Y-88249600D03*
X152854700Y-90361900D03*
X130050000Y-73797900D03*
X142301800Y-97702300D03*
X148502700Y-83390000D03*
X151784900Y-99935000D03*
D15*
X168402000Y-49276000D02*
X167026600Y-47900600D01*
X167026600Y-47900600D02*
X140313400Y-47900600D01*
X140313400Y-47900600D02*
X138938000Y-49276000D01*
X123190000Y-116840000D02*
X124460000Y-118110000D01*
X124460000Y-118110000D02*
X138730000Y-118110000D01*
X138730000Y-118110000D02*
X139700000Y-119080000D01*
X139700000Y-119080000D02*
X139700000Y-119688000D01*
X139700000Y-119688000D02*
X140481400Y-120469400D01*
X140481400Y-120469400D02*
X143966800Y-120469400D01*
X143966800Y-120469400D02*
X144962600Y-119473600D01*
X144962600Y-119473600D02*
X144962600Y-118876900D01*
X144962600Y-118876900D02*
X145912100Y-117927400D01*
X145912100Y-117927400D02*
X149104900Y-117927400D01*
X149104900Y-117927400D02*
X149860000Y-117172300D01*
X149860000Y-117172300D02*
X149860000Y-116568900D01*
X149860000Y-116568900D02*
X155938900Y-110490000D01*
X155938900Y-110490000D02*
X157676900Y-110490000D01*
X157676900Y-110490000D02*
X166624000Y-110490000D01*
X157676900Y-110490000D02*
X157676900Y-105401700D01*
X157676900Y-105401700D02*
X156669200Y-104394000D01*
X166624000Y-80772000D02*
X164061900Y-78209900D01*
X164061900Y-78209900D02*
X164061900Y-69573600D01*
X164061900Y-69573600D02*
X164061800Y-69573600D01*
X117856000Y-110236000D02*
X119156000Y-110236000D01*
X119156000Y-110236000D02*
X120650000Y-108742000D01*
X120650000Y-108742000D02*
X120650000Y-84866000D01*
X120650000Y-84866000D02*
X117856000Y-82072000D01*
X117856000Y-82072000D02*
X117856000Y-80772000D01*
X166624000Y-57912000D02*
X165324000Y-57912000D01*
X165324000Y-57912000D02*
X163322000Y-59914000D01*
X163322000Y-59914000D02*
X163322000Y-83028000D01*
X163322000Y-83028000D02*
X166624000Y-86330000D01*
X166624000Y-86330000D02*
X166624000Y-87630000D01*
X117856000Y-80772000D02*
X119156000Y-80772000D01*
X119156000Y-80772000D02*
X120904000Y-79024000D01*
X120904000Y-79024000D02*
X120904000Y-55402000D01*
X120904000Y-55402000D02*
X116078000Y-50576000D01*
X116078000Y-50576000D02*
X116078000Y-49276000D01*
X166624000Y-78232000D02*
X167999400Y-79607400D01*
X167999400Y-79607400D02*
X167999400Y-88900100D01*
X167999400Y-88900100D02*
X166729500Y-90170000D01*
X166729500Y-90170000D02*
X166624000Y-90170000D01*
X166624000Y-90170000D02*
X158597200Y-90170000D01*
X146050000Y-116840000D02*
X146050000Y-112402600D01*
X146050000Y-112402600D02*
X158597200Y-99855400D01*
X158597200Y-99855400D02*
X158597200Y-90170000D01*
X158597200Y-90170000D02*
X152263800Y-83836600D01*
X152263800Y-83836600D02*
X151773700Y-83836600D01*
X166624000Y-75692000D02*
X168449700Y-73866300D01*
X168449700Y-73866300D02*
X168449700Y-56529500D01*
X168449700Y-56529500D02*
X168006500Y-56086300D01*
X168006500Y-56086300D02*
X150826000Y-56086300D01*
X150826000Y-56086300D02*
X142240000Y-64672300D01*
X142240000Y-64672300D02*
X139342400Y-64672300D01*
X139342400Y-64672300D02*
X131777500Y-72237200D01*
X131777500Y-72237200D02*
X131777500Y-72906700D01*
X131777500Y-72906700D02*
X143733100Y-84862300D01*
X143733100Y-84862300D02*
X145125800Y-84862300D01*
X145125800Y-84862300D02*
X148506600Y-88243100D01*
X166624000Y-73152000D02*
X164971300Y-71499300D01*
X164971300Y-71499300D02*
X164971300Y-61545000D01*
X164971300Y-61545000D02*
X164600500Y-61174200D01*
X144609400Y-77639000D02*
X157483800Y-77639000D01*
X157483800Y-77639000D02*
X158953400Y-76169400D01*
X156827800Y-78689500D02*
X149539800Y-78689500D01*
X149539800Y-78689500D02*
X144092300Y-84137000D01*
X140970000Y-119380000D02*
X139700000Y-118110000D01*
X139700000Y-118110000D02*
X139700000Y-110842600D01*
X139700000Y-110842600D02*
X135782300Y-106924900D01*
X139087800Y-98939600D02*
X135056500Y-102970900D01*
X135056500Y-102970900D02*
X135056500Y-106199100D01*
X135056500Y-106199100D02*
X135782300Y-106924900D01*
X135782800Y-86544300D02*
X135782800Y-95634600D01*
X135782800Y-95634600D02*
X139087800Y-98939600D01*
X139087800Y-98939600D02*
X143121100Y-102972900D01*
X143121100Y-102972900D02*
X152943500Y-102972900D01*
X135782800Y-86544300D02*
X135782800Y-84256100D01*
X135782800Y-84256100D02*
X131296200Y-79769500D01*
X144396800Y-86364600D02*
X144217100Y-86544300D01*
X144217100Y-86544300D02*
X135782800Y-86544300D01*
X135960700Y-75319300D02*
X135763600Y-75319300D01*
X135763600Y-75319300D02*
X133757500Y-73313200D01*
X135960700Y-75319300D02*
X145963500Y-75319300D01*
X145963500Y-75319300D02*
X151958800Y-69324000D01*
X143510000Y-119380000D02*
X142240000Y-118110000D01*
X142240000Y-118110000D02*
X142240000Y-111676500D01*
X142240000Y-111676500D02*
X135978400Y-105414900D01*
X138115200Y-100970000D02*
X138115200Y-103278100D01*
X138115200Y-103278100D02*
X135978400Y-105414900D01*
X135978400Y-105414900D02*
X135789800Y-105414900D01*
X166624000Y-60452000D02*
X166744300Y-60452000D01*
X166744300Y-60452000D02*
X167999400Y-59196900D01*
X167999400Y-59196900D02*
X167999400Y-56716100D01*
X167999400Y-56716100D02*
X167820000Y-56536700D01*
X167820000Y-56536700D02*
X153801200Y-56536700D01*
X153801200Y-56536700D02*
X137790900Y-72547000D01*
X137790900Y-72547000D02*
X132511700Y-72547000D01*
X148590000Y-116840000D02*
X156928900Y-108501100D01*
X156928900Y-108501100D02*
X156928900Y-105856700D01*
X166624000Y-107950000D02*
X162326400Y-103652400D01*
X162326400Y-103652400D02*
X156371300Y-103652400D01*
X156371300Y-103652400D02*
X155937000Y-104086700D01*
X155937000Y-104086700D02*
X155937000Y-104864800D01*
X155937000Y-104864800D02*
X156928900Y-105856700D01*
X166624000Y-102870000D02*
X156456100Y-102870000D01*
X156456100Y-102870000D02*
X151788700Y-107537400D01*
X151788700Y-107537400D02*
X151788700Y-107723000D01*
X144190700Y-112687500D02*
X144313600Y-112687500D01*
X144313600Y-112687500D02*
X154066100Y-102935000D01*
X154066100Y-102935000D02*
X154066100Y-89898600D01*
X154066100Y-89898600D02*
X151048400Y-86880900D01*
X151048400Y-86880900D02*
X151048400Y-83465500D01*
X151048400Y-83465500D02*
X152855000Y-81658900D01*
X152855000Y-81658900D02*
X153264500Y-81658900D01*
X137079500Y-89735000D02*
X144121500Y-89735000D01*
X144121500Y-89735000D02*
X145606900Y-88249600D01*
X142301800Y-97702300D02*
X148757600Y-91246500D01*
X148757600Y-91246500D02*
X148757600Y-90361900D01*
X148757600Y-90361900D02*
X152854700Y-90361900D01*
X148757600Y-90361900D02*
X148757600Y-89674200D01*
X148757600Y-89674200D02*
X144710000Y-85626600D01*
X144710000Y-85626600D02*
X141878700Y-85626600D01*
X141878700Y-85626600D02*
X130050000Y-73797900D01*
X151784900Y-99935000D02*
X153594500Y-98125400D01*
X153594500Y-98125400D02*
X153594500Y-90063900D01*
X153594500Y-90063900D02*
X148502700Y-84972100D01*
X148502700Y-84972100D02*
X148502700Y-83390000D01*
M02*
